<?xml version="1.0" encoding="UTF-8"?>
<!DOCTYPE svg PUBLIC "-//W3C//DTD SVG 1.1//EN" "http://www.w3.org/Graphics/SVG/1.1/DTD/svg11.dtd">
<svg xmlns="http://www.w3.org/2000/svg" version="1.1" width="980px" height="980px" style="shape-rendering:geometricPrecision; text-rendering:geometricPrecision; image-rendering:optimizeQuality; fill-rule:evenodd; clip-rule:evenodd" xmlns:xlink="http://www.w3.org/1999/xlink">
<g><path style="opacity:1" fill="#fefefe" d="M -0.5,-0.5 C 326.167,-0.5 652.833,-0.5 979.5,-0.5C 979.5,326.167 979.5,652.833 979.5,979.5C 652.833,979.5 326.167,979.5 -0.5,979.5C -0.5,652.833 -0.5,326.167 -0.5,-0.5 Z"/></g>
<g><path style="opacity:1" fill="#a1a5b7" d="M 447.5,82.5 C 447.5,83.5 447.5,84.5 447.5,85.5C 445.856,85.2865 444.356,85.6198 443,86.5C 441.617,105.483 441.284,124.483 442,143.5C 441.278,149.333 443.778,152.167 449.5,152C 447.833,152.333 446.167,152.667 444.5,153C 447.047,153.66 449.547,153.493 452,152.5C 453.684,152.683 453.85,153.35 452.5,154.5C 444.475,156.453 437.642,154.453 432,148.5C 430.428,144.563 428.595,140.896 426.5,137.5C 424.943,129.832 422.609,122.499 419.5,115.5C 419.5,115.167 419.5,114.833 419.5,114.5C 420.268,113.737 420.768,112.737 421,111.5C 421.274,114.715 422.607,117.381 425,119.5C 426.666,106.188 426.833,92.8544 425.5,79.5C 424.757,78.0921 423.923,76.7588 423,75.5C 421,76.8333 419,76.8333 417,75.5C 415.372,78.4634 413.538,81.13 411.5,83.5C 415.094,71.0227 423.427,66.1893 436.5,69C 439.939,71.1386 443.106,73.6386 446,76.5C 447.128,78.3453 447.628,80.3453 447.5,82.5 Z"/></g>
<g><path style="opacity:1" fill="#9ca0b2" d="M 419.5,114.5 C 417.912,107.987 415.746,101.653 413,95.5C 411.844,91.5817 411.344,87.5817 411.5,83.5C 413.538,81.13 415.372,78.4634 417,75.5C 419,76.8333 421,76.8333 423,75.5C 423.923,76.7588 424.757,78.0921 425.5,79.5C 426.833,92.8544 426.666,106.188 425,119.5C 422.607,117.381 421.274,114.715 421,111.5C 420.768,112.737 420.268,113.737 419.5,114.5 Z"/></g>
<g><path style="opacity:1" fill="#a7abbe" d="M 447.5,82.5 C 451.123,89.358 453.789,96.6913 455.5,104.5C 455.5,105.167 455.833,105.5 456.5,105.5C 460.072,115.986 463.072,126.653 465.5,137.5C 464.428,144.666 461.094,150.333 455.5,154.5C 454.5,154.5 453.5,154.5 452.5,154.5C 453.85,153.35 453.684,152.683 452,152.5C 449.547,153.493 447.047,153.66 444.5,153C 446.167,152.667 447.833,152.333 449.5,152C 443.778,152.167 441.278,149.333 442,143.5C 441.284,124.483 441.617,105.483 443,86.5C 444.356,85.6198 445.856,85.2865 447.5,85.5C 447.5,84.5 447.5,83.5 447.5,82.5 Z"/></g>
<g><path style="opacity:1" fill="#a3a9b3" d="M 371.5,95.5 C 366.5,95.5 361.5,95.5 356.5,95.5C 354.031,94.9329 351.698,94.9329 349.5,95.5C 351.511,92.3336 354.511,91.0003 358.5,91.5C 363.368,91.4612 367.701,92.7945 371.5,95.5 Z"/></g>
<g><path style="opacity:1" fill="#9da1b2" d="M 356.5,95.5 C 354.171,111.441 353.838,127.441 355.5,143.5C 357.5,143.5 359.5,143.5 361.5,143.5C 361.334,151.507 361.5,159.507 362,167.5C 363.812,169.304 363.646,170.304 361.5,170.5C 357.092,159.605 353.092,148.605 349.5,137.5C 345.744,128.146 343.078,118.479 341.5,108.5C 341.478,106.035 341.978,103.702 343,101.5C 344.406,98.5914 346.572,96.5914 349.5,95.5C 351.698,94.9329 354.031,94.9329 356.5,95.5 Z"/></g>
<g><path style="opacity:1" fill="#a1a5b8" d="M 356.5,95.5 C 361.5,95.5 366.5,95.5 371.5,95.5C 372.5,95.8333 373.167,96.5 373.5,97.5C 369.971,98.0297 369.638,99.3631 372.5,101.5C 373.089,103.373 372.422,105.04 370.5,106.5C 371.274,110.779 371.774,115.113 372,119.5C 372.5,138.164 372.667,156.83 372.5,175.5C 377.167,175.5 381.833,175.5 386.5,175.5C 385.571,176.315 384.571,177.148 383.5,178C 378.833,178.667 374.167,178.667 369.5,178C 366.939,176.354 364.606,174.521 362.5,172.5C 362.167,171.833 361.833,171.167 361.5,170.5C 363.646,170.304 363.812,169.304 362,167.5C 361.5,159.507 361.334,151.507 361.5,143.5C 359.5,143.5 357.5,143.5 355.5,143.5C 353.838,127.441 354.171,111.441 356.5,95.5 Z"/></g>
<g><path style="opacity:1" fill="#eaecf1" d="M 528.5,114.5 C 527.532,117.445 527.366,120.445 528,123.5C 528.414,123.043 528.914,122.709 529.5,122.5C 530.952,123.94 531.952,125.606 532.5,127.5C 525.5,127.5 518.5,127.5 511.5,127.5C 511.5,122.167 511.5,116.833 511.5,111.5C 506.167,111.5 500.833,111.5 495.5,111.5C 495.5,110.167 495.5,108.833 495.5,107.5C 500.833,107.5 506.167,107.5 511.5,107.5C 511.662,105.473 511.495,103.473 511,101.5C 510.667,101.833 510.333,102.167 510,102.5C 507.782,101.528 505.449,100.861 503,100.5C 497.216,100.737 491.383,100.904 485.5,101C 482.353,101.946 479.353,103.113 476.5,104.5C 472.167,104.5 467.833,104.5 463.5,104.5C 463.79,108.554 463.123,109.054 461.5,106C 459.866,105.506 458.199,105.34 456.5,105.5C 455.833,105.5 455.5,105.167 455.5,104.5C 463.644,102.767 471.644,100.434 479.5,97.5C 491.889,95.3858 503.889,96.7191 515.5,101.5C 520.555,105.222 524.889,109.555 528.5,114.5 Z"/></g>
<g><path style="opacity:1" fill="#e6e9f1" d="M 476.5,104.5 C 476.5,105.833 476.5,107.167 476.5,108.5C 477.5,108.5 478.5,108.5 479.5,108.5C 479.5,109.5 479.5,110.5 479.5,111.5C 478.5,111.5 477.5,111.5 476.5,111.5C 476.5,116.833 476.5,122.167 476.5,127.5C 477.5,127.5 478.5,127.5 479.5,127.5C 479.5,132.833 479.5,138.167 479.5,143.5C 478.5,143.5 477.5,143.5 476.5,143.5C 476.5,182.833 476.5,222.167 476.5,261.5C 477.675,261.281 478.675,261.614 479.5,262.5C 479.245,264.343 479.078,266.343 479,268.5C 478.385,266.884 477.385,265.551 476,264.5C 475.982,266.797 476.149,269.131 476.5,271.5C 475.5,271.5 474.5,271.5 473.5,271.5C 473.955,263.041 469.955,259.708 461.5,261.5C 459.5,260.5 457.5,259.5 455.5,258.5C 455.631,257.624 455.298,256.957 454.5,256.5C 449.248,254.044 444.248,251.378 439.5,248.5C 440.519,242.221 438.186,240.554 432.5,243.5C 431.614,242.675 431.281,241.675 431.5,240.5C 430.448,240.649 429.448,240.483 428.5,240C 431.146,239.503 433.813,239.336 436.5,239.5C 436.832,212.797 436.165,186.131 434.5,159.5C 433.5,159.5 432.5,159.5 431.5,159.5C 431.192,157.076 431.526,154.743 432.5,152.5C 433.865,154.86 435.865,156.527 438.5,157.5C 439.167,156.833 439.833,156.167 440.5,155.5C 444.111,156.262 447.778,156.762 451.5,157C 448.063,157.649 447.896,158.149 451,158.5C 453.912,158.642 455.412,157.309 455.5,154.5C 461.094,150.333 464.428,144.666 465.5,137.5C 463.072,126.653 460.072,115.986 456.5,105.5C 458.199,105.34 459.866,105.506 461.5,106C 463.123,109.054 463.79,108.554 463.5,104.5C 467.833,104.5 472.167,104.5 476.5,104.5 Z"/></g>
<g><path style="opacity:1" fill="#e9ebf4" d="M 532.5,127.5 C 532.5,132.833 532.5,138.167 532.5,143.5C 530.833,143.5 529.167,143.5 527.5,143.5C 527.5,154.167 527.5,164.833 527.5,175.5C 528.5,175.5 529.5,175.5 530.5,175.5C 530.167,282.335 530.501,389.001 531.5,495.5C 525.452,497.691 519.452,500.191 513.5,503C 504.1,506.52 494.433,509.353 484.5,511.5C 481.833,511.5 479.167,511.5 476.5,511.5C 476.5,484.833 476.5,458.167 476.5,431.5C 477.5,431.5 478.5,431.5 479.5,431.5C 479.664,428.813 479.497,426.146 479,423.5C 477.213,422.657 475.38,422.49 473.5,423C 476.077,421.169 478.077,418.836 479.5,416C 478.944,415.617 478.611,415.117 478.5,414.5C 507.378,376.663 511.211,336.33 490,293.5C 482.077,281.238 472.577,270.572 461.5,261.5C 469.955,259.708 473.955,263.041 473.5,271.5C 474.5,271.5 475.5,271.5 476.5,271.5C 476.149,269.131 475.982,266.797 476,264.5C 477.385,265.551 478.385,266.884 479,268.5C 479.078,266.343 479.245,264.343 479.5,262.5C 478.675,261.614 477.675,261.281 476.5,261.5C 476.5,222.167 476.5,182.833 476.5,143.5C 477.5,143.5 478.5,143.5 479.5,143.5C 479.5,138.167 479.5,132.833 479.5,127.5C 478.5,127.5 477.5,127.5 476.5,127.5C 476.5,122.167 476.5,116.833 476.5,111.5C 477.5,111.5 478.5,111.5 479.5,111.5C 479.5,110.5 479.5,109.5 479.5,108.5C 478.5,108.5 477.5,108.5 476.5,108.5C 476.5,107.167 476.5,105.833 476.5,104.5C 479.353,103.113 482.353,101.946 485.5,101C 491.383,100.904 497.216,100.737 503,100.5C 505.449,100.861 507.782,101.528 510,102.5C 510.333,102.167 510.667,101.833 511,101.5C 511.495,103.473 511.662,105.473 511.5,107.5C 506.167,107.5 500.833,107.5 495.5,107.5C 495.5,108.833 495.5,110.167 495.5,111.5C 500.833,111.5 506.167,111.5 511.5,111.5C 511.5,116.833 511.5,122.167 511.5,127.5C 518.5,127.5 525.5,127.5 532.5,127.5 Z"/></g>
<g><path style="opacity:1" fill="#dee0e6" d="M 295.5,115.5 C 291.629,115.185 287.962,115.518 284.5,116.5C 283.833,116.5 283.167,116.5 282.5,116.5C 283.953,115.175 283.619,114.342 281.5,114C 286.311,113.996 290.977,114.496 295.5,115.5 Z"/></g>
<g><path style="opacity:1" fill="#a1a5b8" d="M 287.5,117.5 C 295.131,116.75 299.131,119.917 299.5,127C 300.448,127.483 301.448,127.649 302.5,127.5C 302.53,150.149 302.53,172.649 302.5,195C 303.563,196.188 304.897,196.688 306.5,196.5C 306.48,198.143 307.147,199.476 308.5,200.5C 305.205,201.401 301.872,201.401 298.5,200.5C 291.934,196.816 288.267,191.149 287.5,183.5C 287.382,176.046 287.382,168.712 287.5,161.5C 286.975,160.808 286.308,160.308 285.5,160C 287.662,157.478 287.995,154.645 286.5,151.5C 284.898,152.55 284.065,151.883 284,149.5C 283.667,149.833 283.333,150.167 283,150.5C 282.338,148.187 281.838,145.854 281.5,143.5C 282.833,143.5 284.167,143.5 285.5,143.5C 285.099,137.044 285.766,130.71 287.5,124.5C 286.6,122.593 285.6,121.093 284.5,120C 284.833,119.167 285.167,118.333 285.5,117.5C 286.429,118.55 287.095,118.55 287.5,117.5 Z"/></g>
<g><path style="opacity:1" fill="#a7abbe" d="M 373.5,97.5 C 374.79,98.0577 375.623,99.0577 376,100.5C 379.461,109.084 382.628,117.75 385.5,126.5C 385.5,126.833 385.5,127.167 385.5,127.5C 388.547,136.47 391.713,145.47 395,154.5C 396.162,160.557 395.162,166.223 392,171.5C 390.549,173.464 388.716,174.797 386.5,175.5C 381.833,175.5 377.167,175.5 372.5,175.5C 372.667,156.83 372.5,138.164 372,119.5C 371.774,115.113 371.274,110.779 370.5,106.5C 372.422,105.04 373.089,103.373 372.5,101.5C 369.638,99.3631 369.971,98.0297 373.5,97.5 Z"/></g>
<g><path style="opacity:1" fill="#9ca1b1" d="M 282.5,116.5 C 283.167,116.5 283.833,116.5 284.5,116.5C 285.791,116.263 286.791,116.596 287.5,117.5C 287.095,118.55 286.429,118.55 285.5,117.5C 285.167,118.333 284.833,119.167 284.5,120C 285.6,121.093 286.6,122.593 287.5,124.5C 285.766,130.71 285.099,137.044 285.5,143.5C 284.167,143.5 282.833,143.5 281.5,143.5C 281.838,145.854 282.338,148.187 283,150.5C 283.333,150.167 283.667,149.833 284,149.5C 284.065,151.883 284.898,152.55 286.5,151.5C 287.995,154.645 287.662,157.478 285.5,160C 286.308,160.308 286.975,160.808 287.5,161.5C 287.382,168.712 287.382,176.046 287.5,183.5C 285.015,176.041 282.349,168.708 279.5,161.5C 276.51,152.037 273.843,142.537 271.5,133C 272.057,125.376 275.724,119.876 282.5,116.5 Z"/></g>
<g><path style="opacity:1" fill="#ebeef6" d="M 528.5,114.5 C 530.732,115.869 533.066,116.869 535.5,117.5C 533.473,117.338 531.473,117.505 529.5,118C 530.99,118.745 531.99,119.912 532.5,121.5C 534.399,127.78 536.899,133.78 540,139.5C 541.576,148.125 544.243,156.458 548,164.5C 549.138,168.121 549.972,171.788 550.5,175.5C 548.833,175.5 547.167,175.5 545.5,175.5C 544.521,279.227 544.187,382.894 544.5,486.5C 548.445,487.491 552.445,487.824 556.5,487.5C 556.389,488.117 556.056,488.617 555.5,489C 547.485,491.493 539.485,493.659 531.5,495.5C 530.501,389.001 530.167,282.335 530.5,175.5C 529.5,175.5 528.5,175.5 527.5,175.5C 527.5,164.833 527.5,154.167 527.5,143.5C 529.167,143.5 530.833,143.5 532.5,143.5C 532.5,138.167 532.5,132.833 532.5,127.5C 531.952,125.606 530.952,123.94 529.5,122.5C 528.914,122.709 528.414,123.043 528,123.5C 527.366,120.445 527.532,117.445 528.5,114.5 Z"/></g>
<g><path style="opacity:1" fill="#d6dcea" d="M 535.5,117.5 C 550.21,120.809 564.877,124.309 579.5,128C 584.31,129.91 589.144,131.744 594,133.5C 613.524,142.776 632.691,152.609 651.5,163C 657.031,168.535 663.365,172.869 670.5,176C 671.071,177.205 671.738,178.372 672.5,179.5C 678.588,183.088 684.255,187.254 689.5,192C 705.864,208.017 721.031,224.85 735,242.5C 735.483,243.448 735.649,244.448 735.5,245.5C 736.5,245.5 737.5,245.5 738.5,245.5C 742.817,255.116 748.151,264.116 754.5,272.5C 759.21,282.524 763.876,292.524 768.5,302.5C 769.881,303.881 771.215,305.215 772.5,306.5C 767.305,306.179 762.305,306.513 757.5,307.5C 751.19,308.495 745.524,310.828 740.5,314.5C 737.211,316.616 734.044,318.949 731,321.5C 727.667,326.167 724.333,330.833 721,335.5C 716.051,348.19 711.217,360.856 706.5,373.5C 703.704,378.695 701.371,384.195 699.5,390C 699.743,390.902 700.077,391.735 700.5,392.5C 698.983,392.511 697.816,393.177 697,394.5C 696.103,398.152 695.27,401.819 694.5,405.5C 689.817,415.443 685.317,425.443 681,435.5C 680.333,438.167 679.667,440.833 679,443.5C 672.048,459.734 665.382,476.067 659,492.5C 657.14,498.083 655.473,503.75 654,509.5C 650.806,514.554 648.139,519.888 646,525.5C 641.546,536.081 637.713,546.914 634.5,558C 630.677,564.807 627.844,571.973 626,579.5C 624.873,582.199 623.373,584.699 621.5,587C 618.601,594.65 616.101,602.483 614,610.5C 609.308,617.346 606.808,624.68 606.5,632.5C 602.981,636.824 600.481,641.824 599,647.5C 599.504,668.99 600.337,690.323 601.5,711.5C 601.5,714.167 601.5,716.833 601.5,719.5C 598.146,719.069 595.313,720.069 593,722.5C 579.136,726.54 565.303,730.707 551.5,735C 534.326,738.557 516.993,741.057 499.5,742.5C 478.47,742.666 457.47,741.999 436.5,740.5C 430.494,739.777 424.494,738.944 418.5,738C 407.13,735.49 395.797,732.657 384.5,729.5C 372.674,725.082 361.008,720.415 349.5,715.5C 349.833,714.167 350.167,712.833 350.5,711.5C 352.833,709.167 355.167,706.833 357.5,704.5C 361.003,703.129 364.336,701.462 367.5,699.5C 408.53,699.816 449.53,699.483 490.5,698.5C 518.819,689.499 529.486,670.332 522.5,641C 516.947,628.848 507.947,620.515 495.5,616C 420.869,614.349 346.203,614.015 271.5,615C 267.541,619.499 267.541,623.999 271.5,628.5C 271.611,629.117 271.944,629.617 272.5,630C 343.499,630.5 414.499,630.667 485.5,630.5C 504.374,634.907 511.541,646.574 507,665.5C 503.438,674.532 496.938,680.199 487.5,682.5C 446.832,682.333 406.165,682.5 365.5,683C 363.942,683.21 362.609,683.71 361.5,684.5C 351.097,687.914 343.097,694.247 337.5,703.5C 336.326,704.514 335.66,705.847 335.5,707.5C 334.833,708.167 334.167,708.833 333.5,709.5C 330.976,705.553 327.309,703.053 322.5,702C 318.55,699.076 314.55,696.242 310.5,693.5C 306.252,693.559 303.919,691.559 303.5,687.5C 301.345,687.628 299.345,687.128 297.5,686C 292.831,682.938 288.498,679.438 284.5,675.5C 281.934,671.816 279.934,667.816 278.5,663.5C 276.5,662.833 274.5,662.167 272.5,661.5C 269.695,658.851 266.695,656.518 263.5,654.5C 262.627,652.587 261.627,650.753 260.5,649C 256.23,647.32 252.563,644.82 249.5,641.5C 250.376,640.749 251.376,640.249 252.5,640C 251.376,639.751 250.376,639.251 249.5,638.5C 248.82,636.111 247.986,633.778 247,631.5C 246.549,633.929 245.715,634.096 244.5,632C 244.833,631.667 245.167,631.333 245.5,631C 240.616,630.888 238.616,628.388 239.5,623.5C 238.167,623.5 236.833,623.5 235.5,623.5C 236.171,619.685 234.838,616.851 231.5,615C 221.172,614.5 210.839,614.334 200.5,614.5C 208.323,613.671 216.323,613.171 224.5,613C 223.594,611.301 223.261,609.467 223.5,607.5C 221.856,607.714 220.356,607.38 219,606.5C 215.697,601.031 212.197,595.698 208.5,590.5C 207.541,586.586 206.041,582.919 204,579.5C 201.142,575.221 198.475,570.888 196,566.5C 171.747,513.527 161.58,457.861 165.5,399.5C 166.833,399.5 168.167,399.5 169.5,399.5C 169.044,383.219 170.711,367.219 174.5,351.5C 176.657,340.532 179.323,329.699 182.5,319C 178.025,307.631 174.525,295.797 172,283.5C 164.709,269.006 160.209,253.673 158.5,237.5C 158.762,231.737 159.595,226.07 161,220.5C 163.329,216.509 165.663,212.509 168,208.5C 168.671,207.748 169.504,207.414 170.5,207.5C 172.167,207.5 173.833,207.5 175.5,207.5C 175.238,206.022 175.571,204.689 176.5,203.5C 178.776,202.787 181.109,202.287 183.5,202C 186.722,197.214 190.722,196.38 195.5,199.5C 196.938,199.281 198.271,198.781 199.5,198C 197.009,197.374 197.009,196.541 199.5,195.5C 201.045,194.548 202.712,194.215 204.5,194.5C 204.5,193.5 204.5,192.5 204.5,191.5C 206.179,191.715 207.179,191.048 207.5,189.5C 208.209,188.596 209.209,188.263 210.5,188.5C 213.978,197.387 217.145,206.387 220,215.5C 222.047,219.048 224.88,221.715 228.5,223.5C 229.263,224.268 230.263,224.768 231.5,225C 234.817,225.498 238.15,225.665 241.5,225.5C 236.68,226.487 231.68,227.153 226.5,227.5C 226.649,226.448 226.483,225.448 226,224.5C 225.355,225.646 224.522,226.646 223.5,227.5C 226.812,229.845 226.812,231.178 223.5,231.5C 223.836,298.18 223.502,359.513 222.5,415.5C 221.167,415.5 219.833,415.5 218.5,415.5C 218.5,418.167 218.5,420.833 218.5,423.5C 219.5,423.5 220.5,423.5 221.5,423.5C 222.833,431.5 224.167,439.5 225.5,447.5C 226.5,447.5 227.5,447.5 228.5,447.5C 228.857,452.933 229.857,458.266 231.5,463.5C 231.837,385.79 232.837,308.29 234.5,231C 232.5,230.667 230.5,230.333 228.5,230C 232.167,229.333 235.833,229.333 239.5,230C 238.167,230.333 236.833,230.667 235.5,231C 236.165,269.763 236.499,308.596 236.5,347.5C 236.474,387.709 235.807,427.875 234.5,468C 238.819,485.448 243.819,502.614 249.5,519.5C 250.5,519.5 251.5,519.5 252.5,519.5C 252.335,522.85 252.502,526.183 253,529.5C 253.417,530.756 254.25,531.423 255.5,531.5C 256.784,541.996 261.117,551.163 268.5,559C 273.234,562.734 278.234,566.068 283.5,569C 300.843,572.473 317.51,570.473 333.5,563C 334.756,562.583 335.423,561.75 335.5,560.5C 343.265,560.059 350.598,558.059 357.5,554.5C 360.475,553.861 363.475,553.361 366.5,553C 367.056,552.617 367.389,552.117 367.5,551.5C 373.014,550.377 378.347,548.71 383.5,546.5C 383.5,545.5 383.5,544.5 383.5,543.5C 387.36,544.032 391.36,543.865 395.5,543C 405.718,539.482 415.718,535.649 425.5,531.5C 428.015,531.231 430.015,530.231 431.5,528.5C 433.415,528.784 435.081,528.451 436.5,527.5C 444.588,526.304 452.254,523.804 459.5,520C 462.167,519.667 464.833,519.333 467.5,519C 473.173,516.038 478.839,513.538 484.5,511.5C 494.433,509.353 504.1,506.52 513.5,503C 519.452,500.191 525.452,497.691 531.5,495.5C 539.485,493.659 547.485,491.493 555.5,489C 556.056,488.617 556.389,488.117 556.5,487.5C 562.078,485.642 567.745,483.975 573.5,482.5C 574.713,482.253 575.38,481.586 575.5,480.5C 587.412,477.695 599.079,474.195 610.5,470C 631.396,456.025 638.229,436.858 631,412.5C 623.776,390.992 616.276,369.658 608.5,348.5C 607.898,344.988 607.231,341.488 606.5,338C 599.493,323.43 594.326,308.263 591,292.5C 588.29,284.743 585.29,277.076 582,269.5C 581.181,262.892 579.015,256.892 575.5,251.5C 574.096,245.94 572.929,240.273 572,234.5C 568.195,224.88 564.362,215.213 560.5,205.5C 558.428,194.957 555.094,184.957 550.5,175.5C 549.972,171.788 549.138,168.121 548,164.5C 544.243,156.458 541.576,148.125 540,139.5C 536.899,133.78 534.399,127.78 532.5,121.5C 531.99,119.912 530.99,118.745 529.5,118C 531.473,117.505 533.473,117.338 535.5,117.5 Z"/></g>
<g><path style="opacity:1" fill="#e2e5f1" d="M 415.5,241.5 C 405.847,240.588 396.18,240.421 386.5,241C 382.535,241.108 378.868,241.941 375.5,243.5C 372.833,243.833 370.167,244.167 367.5,244.5C 365.075,244.316 365.075,243.649 367.5,242.5C 365.009,241.459 365.009,240.626 367.5,240C 364.56,239.114 363.56,239.948 364.5,242.5C 361.927,243.654 359.761,245.32 358,247.5C 357.167,223.493 357.334,199.493 358.5,175.5C 359.283,173.712 360.616,172.712 362.5,172.5C 364.606,174.521 366.939,176.354 369.5,178C 374.167,178.667 378.833,178.667 383.5,178C 384.571,177.148 385.571,176.315 386.5,175.5C 388.716,174.797 390.549,173.464 392,171.5C 395.162,166.223 396.162,160.557 395,154.5C 391.713,145.47 388.547,136.47 385.5,127.5C 392.229,126.924 398.896,125.924 405.5,124.5C 407.759,124.532 409.925,124.866 412,125.5C 414.066,122.702 415.566,123.035 416.5,126.5C 415.506,164.79 415.173,203.124 415.5,241.5 Z"/></g>
<g><path style="opacity:1" fill="#a7abbe" d="M 284.5,116.5 C 287.962,115.518 291.629,115.185 295.5,115.5C 299.628,117.317 303.128,119.984 306,123.5C 309.82,132.829 313.32,142.163 316.5,151.5C 319.323,161.96 322.323,172.294 325.5,182.5C 325.657,187.903 323.99,192.57 320.5,196.5C 313.918,202.665 306.585,203.998 298.5,200.5C 301.872,201.401 305.205,201.401 308.5,200.5C 307.147,199.476 306.48,198.143 306.5,196.5C 304.897,196.688 303.563,196.188 302.5,195C 302.53,172.649 302.53,150.149 302.5,127.5C 301.448,127.649 300.448,127.483 299.5,127C 299.131,119.917 295.131,116.75 287.5,117.5C 286.791,116.596 285.791,116.263 284.5,116.5 Z"/></g>
<g><path style="opacity:1" fill="#e4e7ef" d="M 419.5,115.5 C 422.609,122.499 424.943,129.832 426.5,137.5C 423.98,144.489 422.98,151.823 423.5,159.5C 424.5,159.5 425.5,159.5 426.5,159.5C 426.5,186.167 426.5,212.833 426.5,239.5C 424.418,239.472 422.584,240.139 421,241.5C 419.612,240.446 418.112,240.28 416.5,241C 417.737,241.232 418.737,241.732 419.5,242.5C 417.901,242.768 416.568,242.434 415.5,241.5C 415.173,203.124 415.506,164.79 416.5,126.5C 415.566,123.035 414.066,122.702 412,125.5C 409.925,124.866 407.759,124.532 405.5,124.5C 398.896,125.924 392.229,126.924 385.5,127.5C 385.5,127.167 385.5,126.833 385.5,126.5C 391.393,125.299 397.06,123.465 402.5,121C 406.848,120.427 411.181,119.76 415.5,119C 417.544,118.502 418.878,117.335 419.5,115.5 Z"/></g>
<g><path style="opacity:1" fill="#dddfe8" d="M 669.5,121.5 C 670.929,118.252 673.429,116.919 677,117.5C 686.896,119.182 689.563,124.515 685,133.5C 680.418,136.912 675.585,137.245 670.5,134.5C 669.109,132.075 667.442,129.909 665.5,128C 666.568,125.562 667.902,123.395 669.5,121.5 Z"/></g>
<g><path style="opacity:1" fill="#d7dbe9" d="M 669.5,121.5 C 673.247,121.392 676.914,121.892 680.5,123C 683.707,124.135 685.041,126.135 684.5,129C 683.024,130.713 681.69,132.547 680.5,134.5C 677.72,133.805 675.053,132.805 672.5,131.5C 671.571,130.311 671.238,128.978 671.5,127.5C 670.5,127.5 669.5,127.5 668.5,127.5C 668.517,125.435 668.85,123.435 669.5,121.5 Z"/></g>
<g><path style="opacity:1" fill="#d8dbe9" d="M 708.5,134.5 C 723.372,134.867 728.872,142.2 725,156.5C 719.625,164.631 712.458,166.631 703.5,162.5C 703.5,161.5 703.5,160.5 703.5,159.5C 700.566,158.711 698.732,156.711 698,153.5C 697.382,148.674 698.049,144.008 700,139.5C 702.523,137.173 705.357,135.507 708.5,134.5 Z"/></g>
<g><path style="opacity:1" fill="#a0a4b7" d="M 233.5,144.5 C 231.885,146.974 231.552,149.64 232.5,152.5C 232.167,152.833 231.833,153.167 231.5,153.5C 229.122,147.992 228.122,148.326 228.5,154.5C 230.344,177.138 231.178,199.805 231,222.5C 230.329,223.252 229.496,223.586 228.5,223.5C 224.88,221.715 222.047,219.048 220,215.5C 217.145,206.387 213.978,197.387 210.5,188.5C 209.121,184.275 208.121,179.942 207.5,175.5C 207.817,172.428 207.484,169.428 206.5,166.5C 204.884,163.83 203.551,160.996 202.5,158C 202.995,154.983 204.329,152.483 206.5,150.5C 207.474,148.257 207.808,145.924 207.5,143.5C 210.733,139.805 214.9,138.138 220,138.5C 225.469,138.487 229.969,140.487 233.5,144.5 Z"/></g>
<g><path style="opacity:1" fill="#a6abbd" d="M 233.5,144.5 C 235.86,146.713 237.694,149.379 239,152.5C 240.75,160.536 243.25,168.203 246.5,175.5C 249.029,184.235 251.863,192.902 255,201.5C 255.499,205.486 255.666,209.486 255.5,213.5C 252.341,219.331 247.674,223.331 241.5,225.5C 238.15,225.665 234.817,225.498 231.5,225C 230.263,224.768 229.263,224.268 228.5,223.5C 229.496,223.586 230.329,223.252 231,222.5C 231.178,199.805 230.344,177.138 228.5,154.5C 228.122,148.326 229.122,147.992 231.5,153.5C 231.833,153.167 232.167,152.833 232.5,152.5C 231.552,149.64 231.885,146.974 233.5,144.5 Z"/></g>
<g><path style="opacity:1" fill="#dfe3ee" d="M 349.5,137.5 C 353.092,148.605 357.092,159.605 361.5,170.5C 361.833,171.167 362.167,171.833 362.5,172.5C 360.616,172.712 359.283,173.712 358.5,175.5C 357.334,199.493 357.167,223.493 358,247.5C 359.761,245.32 361.927,243.654 364.5,242.5C 363.56,239.948 364.56,239.114 367.5,240C 365.009,240.626 365.009,241.459 367.5,242.5C 365.075,243.649 365.075,244.316 367.5,244.5C 363.221,245.973 359.221,247.973 355.5,250.5C 345.526,253.827 336.859,259.161 329.5,266.5C 324.386,270.736 319.719,275.403 315.5,280.5C 314.883,280.389 314.383,280.056 314,279.5C 312.647,280.685 311.48,282.019 310.5,283.5C 309.571,282.311 309.238,280.978 309.5,279.5C 307.418,279.528 305.584,278.861 304,277.5C 303.5,252.836 303.333,228.169 303.5,203.5C 308.46,204.174 313.46,203.841 318.5,202.5C 319.372,200.55 320.039,198.55 320.5,196.5C 323.99,192.57 325.657,187.903 325.5,182.5C 322.323,172.294 319.323,161.96 316.5,151.5C 327.47,148.756 338.136,145.09 348.5,140.5C 349.386,139.675 349.719,138.675 349.5,137.5 Z"/></g>
<g><path style="opacity:1" fill="#e4e6f2" d="M 426.5,137.5 C 428.595,140.896 430.428,144.563 432,148.5C 437.642,154.453 444.475,156.453 452.5,154.5C 453.5,154.5 454.5,154.5 455.5,154.5C 455.412,157.309 453.912,158.642 451,158.5C 447.896,158.149 448.063,157.649 451.5,157C 447.778,156.762 444.111,156.262 440.5,155.5C 439.833,156.167 439.167,156.833 438.5,157.5C 435.865,156.527 433.865,154.86 432.5,152.5C 431.526,154.743 431.192,157.076 431.5,159.5C 432.5,159.5 433.5,159.5 434.5,159.5C 436.165,186.131 436.832,212.797 436.5,239.5C 433.813,239.336 431.146,239.503 428.5,240C 429.448,240.483 430.448,240.649 431.5,240.5C 431.281,241.675 431.614,242.675 432.5,243.5C 438.186,240.554 440.519,242.221 439.5,248.5C 434.816,247.154 430.149,245.82 425.5,244.5C 423.302,244.125 421.302,243.458 419.5,242.5C 418.737,241.732 417.737,241.232 416.5,241C 418.112,240.28 419.612,240.446 421,241.5C 422.584,240.139 424.418,239.472 426.5,239.5C 426.5,212.833 426.5,186.167 426.5,159.5C 425.5,159.5 424.5,159.5 423.5,159.5C 422.98,151.823 423.98,144.489 426.5,137.5 Z"/></g>
<g><path style="opacity:1" fill="#9ea1ac" d="M 207.5,143.5 C 207.808,145.924 207.474,148.257 206.5,150.5C 204.329,152.483 202.995,154.983 202.5,158C 203.551,160.996 204.884,163.83 206.5,166.5C 207.484,169.428 207.817,172.428 207.5,175.5C 202.831,167.815 201.164,159.481 202.5,150.5C 203.45,147.58 205.116,145.247 207.5,143.5 Z"/></g>
<g><path style="opacity:1" fill="#dde1ec" d="M 279.5,161.5 C 282.349,168.708 285.015,176.041 287.5,183.5C 288.267,191.149 291.934,196.816 298.5,200.5C 306.585,203.998 313.918,202.665 320.5,196.5C 320.039,198.55 319.372,200.55 318.5,202.5C 313.46,203.841 308.46,204.174 303.5,203.5C 303.333,228.169 303.5,252.836 304,277.5C 305.584,278.861 307.418,279.528 309.5,279.5C 309.238,280.978 309.571,282.311 310.5,283.5C 311.48,282.019 312.647,280.685 314,279.5C 314.383,280.056 314.883,280.389 315.5,280.5C 294.151,309.921 288.317,342.254 298,377.5C 301.705,387.242 306.205,396.575 311.5,405.5C 309.833,405.5 308.167,405.5 306.5,405.5C 306.5,404.5 306.5,403.5 306.5,402.5C 305.5,402.5 304.5,402.5 303.5,402.5C 303.297,404.39 303.963,405.89 305.5,407C 304.027,407.71 303.36,408.876 303.5,410.5C 306.833,410.5 308.5,412.167 308.5,415.5C 306.833,415.5 305.167,415.5 303.5,415.5C 303.5,463.5 303.5,511.5 303.5,559.5C 314.381,559.971 325.048,560.304 335.5,560.5C 335.423,561.75 334.756,562.583 333.5,563C 317.51,570.473 300.843,572.473 283.5,569C 278.234,566.068 273.234,562.734 268.5,559C 261.117,551.163 256.784,541.996 255.5,531.5C 255.5,425.5 255.5,319.5 255.5,213.5C 255.666,209.486 255.499,205.486 255,201.5C 251.863,192.902 249.029,184.235 246.5,175.5C 256.875,172.319 267.209,168.819 277.5,165C 278.973,164.29 279.64,163.124 279.5,161.5 Z"/></g>
<g><path style="opacity:1" fill="#eceff8" d="M 550.5,175.5 C 555.094,184.957 558.428,194.957 560.5,205.5C 564.362,215.213 568.195,224.88 572,234.5C 572.929,240.273 574.096,245.94 575.5,251.5C 575.56,327.973 575.56,404.306 575.5,480.5C 575.38,481.586 574.713,482.253 573.5,482.5C 567.745,483.975 562.078,485.642 556.5,487.5C 552.445,487.824 548.445,487.491 544.5,486.5C 544.187,382.894 544.521,279.227 545.5,175.5C 547.167,175.5 548.833,175.5 550.5,175.5 Z"/></g>
<g><path style="opacity:1" fill="#dde0e7" d="M 207.5,189.5 C 207.179,191.048 206.179,191.715 204.5,191.5C 204.5,192.5 204.5,193.5 204.5,194.5C 202.712,194.215 201.045,194.548 199.5,195.5C 197.009,196.541 197.009,197.374 199.5,198C 198.271,198.781 196.938,199.281 195.5,199.5C 190.722,196.38 186.722,197.214 183.5,202C 181.109,202.287 178.776,202.787 176.5,203.5C 175.571,204.689 175.238,206.022 175.5,207.5C 173.833,207.5 172.167,207.5 170.5,207.5C 173.284,203.085 177.284,200.085 182.5,198.5C 183.287,197.758 183.953,196.925 184.5,196C 191.977,193.118 199.643,190.952 207.5,189.5 Z"/></g>
<g><path style="opacity:1" fill="#dbdfeb" d="M 255.5,213.5 C 255.5,319.5 255.5,425.5 255.5,531.5C 254.25,531.423 253.417,530.756 253,529.5C 252.502,526.183 252.335,522.85 252.5,519.5C 251.5,519.5 250.5,519.5 249.5,519.5C 243.819,502.614 238.819,485.448 234.5,468C 235.807,427.875 236.474,387.709 236.5,347.5C 236.499,308.596 236.165,269.763 235.5,231C 236.833,230.667 238.167,230.333 239.5,230C 235.833,229.333 232.167,229.333 228.5,230C 230.5,230.333 232.5,230.667 234.5,231C 232.837,308.29 231.837,385.79 231.5,463.5C 229.857,458.266 228.857,452.933 228.5,447.5C 227.5,447.5 226.5,447.5 225.5,447.5C 224.167,439.5 222.833,431.5 221.5,423.5C 220.5,423.5 219.5,423.5 218.5,423.5C 218.5,420.833 218.5,418.167 218.5,415.5C 219.833,415.5 221.167,415.5 222.5,415.5C 223.502,359.513 223.836,298.18 223.5,231.5C 226.812,231.178 226.812,229.845 223.5,227.5C 224.522,226.646 225.355,225.646 226,224.5C 226.483,225.448 226.649,226.448 226.5,227.5C 231.68,227.153 236.68,226.487 241.5,225.5C 247.674,223.331 252.341,219.331 255.5,213.5 Z"/></g>
<g><path style="opacity:1" fill="#a3a7ba" d="M 415.5,241.5 C 416.568,242.434 417.901,242.768 419.5,242.5C 421.302,243.458 423.302,244.125 425.5,244.5C 425.082,245.222 424.416,245.722 423.5,246C 424.167,246.333 424.833,246.667 425.5,247C 424.027,247.71 423.36,248.876 423.5,250.5C 420.833,250.5 418.167,250.5 415.5,250.5C 415.36,248.876 416.027,247.71 417.5,247C 412.777,245.258 410.443,245.091 410.5,246.5C 410.5,265.5 410.5,284.5 410.5,303.5C 412.167,303.5 413.833,303.5 415.5,303.5C 415.671,298.724 416.671,298.391 418.5,302.5C 416.749,305.67 414.082,307.67 410.5,308.5C 412.403,308.065 414.069,308.732 415.5,310.5C 412.833,313.5 410.167,316.5 407.5,319.5C 404.867,321.132 402.533,323.132 400.5,325.5C 398.812,324.479 397.479,323.145 396.5,321.5C 391.833,317.5 387.5,313.167 383.5,308.5C 380.757,305.818 378.091,303.151 375.5,300.5C 376.239,300.631 376.906,300.464 377.5,300C 376.377,298.956 375.044,298.29 373.5,298C 374.5,297.5 375.5,297 376.5,296.5C 377.833,297.5 379.167,298.5 380.5,299.5C 381.604,298.369 381.271,297.535 379.5,297C 383.096,280.606 383.429,264.106 380.5,247.5C 379.167,247.5 377.833,247.5 376.5,247.5C 376.5,250.167 376.5,252.833 376.5,255.5C 375.167,255.5 373.833,255.5 372.5,255.5C 372.988,252.289 372.321,249.456 370.5,247C 373.968,244.712 377.635,244.212 381.5,245.5C 383.39,244.388 385.39,243.554 387.5,243C 383.476,242.503 379.476,242.669 375.5,243.5C 378.868,241.941 382.535,241.108 386.5,241C 396.18,240.421 405.847,240.588 415.5,241.5 Z"/></g>
<g><path style="opacity:1" fill="#a6abbe" d="M 425.5,244.5 C 430.149,245.82 434.816,247.154 439.5,248.5C 444.248,251.378 449.248,254.044 454.5,256.5C 455.298,256.957 455.631,257.624 455.5,258.5C 454.578,260.672 455.412,262.339 458,263.5C 458.49,264.793 458.657,266.127 458.5,267.5C 460.167,267.5 461.833,267.5 463.5,267.5C 463.688,273.999 463.688,280.666 463.5,287.5C 466.167,287.5 468.833,287.5 471.5,287.5C 471.167,327.839 471.5,368.172 472.5,408.5C 473.768,407.572 475.101,407.405 476.5,408C 475.286,409.979 473.619,411.479 471.5,412.5C 472.428,413.768 472.595,415.101 472,416.5C 469.281,415.556 466.448,415.223 463.5,415.5C 464.011,419.03 463.344,422.196 461.5,425C 462.793,425.49 464.127,425.657 465.5,425.5C 457.64,432.933 448.64,438.599 438.5,442.5C 432.434,445.189 426.101,446.855 419.5,447.5C 416.5,447.5 413.5,447.5 410.5,447.5C 410.826,428.59 410.493,409.757 409.5,391C 411.167,390.667 412.833,390.333 414.5,390C 412.024,388.691 410.024,386.858 408.5,384.5C 409.325,383.614 410.325,383.281 411.5,383.5C 411.5,384.5 411.5,385.5 411.5,386.5C 412.822,386.33 413.989,386.663 415,387.5C 415.464,386.906 415.631,386.239 415.5,385.5C 418.803,387.802 421.803,390.468 424.5,393.5C 425.417,394.127 426.417,394.461 427.5,394.5C 437.75,396.961 444.583,393.295 448,383.5C 448.738,379.739 448.405,376.072 447,372.5C 442.988,367.654 438.488,363.321 433.5,359.5C 429.813,355.811 426.48,351.811 423.5,347.5C 427.189,343.48 430.855,339.48 434.5,335.5C 440.262,331.237 444.762,325.904 448,319.5C 448.946,304.609 442.112,298.276 427.5,300.5C 423.227,303.434 419.227,306.767 415.5,310.5C 414.069,308.732 412.403,308.065 410.5,308.5C 414.082,307.67 416.749,305.67 418.5,302.5C 416.671,298.391 415.671,298.724 415.5,303.5C 413.833,303.5 412.167,303.5 410.5,303.5C 410.5,284.5 410.5,265.5 410.5,246.5C 410.443,245.091 412.777,245.258 417.5,247C 416.027,247.71 415.36,248.876 415.5,250.5C 418.167,250.5 420.833,250.5 423.5,250.5C 423.36,248.876 424.027,247.71 425.5,247C 424.833,246.667 424.167,246.333 423.5,246C 424.416,245.722 425.082,245.222 425.5,244.5 Z"/></g>
<g><path style="opacity:1" fill="#9fa4b6" d="M 375.5,300.5 C 365.824,298.089 358.324,301.089 353,309.5C 352.076,314.413 352.742,319.08 355,323.5C 362.779,331.622 370.612,339.622 378.5,347.5C 371.79,355.044 364.624,362.044 357,368.5C 350.421,377.669 351.255,386.003 359.5,393.5C 357.914,392.587 356.414,392.587 355,393.5C 354.147,391.875 353.147,391.542 352,392.5C 351.5,384.173 351.334,375.84 351.5,367.5C 350.5,367.5 349.5,367.5 348.5,367.5C 348.5,332.833 348.5,298.167 348.5,263.5C 349.5,263.5 350.5,263.5 351.5,263.5C 351.168,274.52 351.501,285.52 352.5,296.5C 353.086,296.291 353.586,295.957 354,295.5C 354.5,282.171 354.667,268.837 354.5,255.5C 356.857,255.663 359.19,255.497 361.5,255C 360.069,254.535 358.903,253.701 358,252.5C 356.951,253.517 355.784,253.684 354.5,253C 357.402,252.081 357.735,251.248 355.5,250.5C 359.221,247.973 363.221,245.973 367.5,244.5C 370.167,244.167 372.833,243.833 375.5,243.5C 379.476,242.669 383.476,242.503 387.5,243C 385.39,243.554 383.39,244.388 381.5,245.5C 377.635,244.212 373.968,244.712 370.5,247C 372.321,249.456 372.988,252.289 372.5,255.5C 373.833,255.5 375.167,255.5 376.5,255.5C 376.5,252.833 376.5,250.167 376.5,247.5C 377.833,247.5 379.167,247.5 380.5,247.5C 383.429,264.106 383.096,280.606 379.5,297C 381.271,297.535 381.604,298.369 380.5,299.5C 379.167,298.5 377.833,297.5 376.5,296.5C 375.5,297 374.5,297.5 373.5,298C 375.044,298.29 376.377,298.956 377.5,300C 376.906,300.464 376.239,300.631 375.5,300.5 Z"/></g>
<g><path style="opacity:1" fill="#9b9fb2" d="M 329.5,266.5 C 331.179,266.892 332.846,267.392 334.5,268C 331.833,269 331.833,270 334.5,271C 333.229,273.554 332.562,276.387 332.5,279.5C 333.75,303.471 334.416,327.471 334.5,351.5C 334.167,372.833 333.833,394.167 333.5,415.5C 332.682,418.107 332.182,420.774 332,423.5C 331.329,424.252 330.496,424.586 329.5,424.5C 322.769,418.771 316.769,412.438 311.5,405.5C 306.205,396.575 301.705,387.242 298,377.5C 288.317,342.254 294.151,309.921 315.5,280.5C 319.719,275.403 324.386,270.736 329.5,266.5 Z"/></g>
<g><path style="opacity:1" fill="#9ca1b4" d="M 355.5,250.5 C 357.735,251.248 357.402,252.081 354.5,253C 355.784,253.684 356.951,253.517 358,252.5C 358.903,253.701 360.069,254.535 361.5,255C 359.19,255.497 356.857,255.663 354.5,255.5C 354.667,268.837 354.5,282.171 354,295.5C 353.586,295.957 353.086,296.291 352.5,296.5C 351.501,285.52 351.168,274.52 351.5,263.5C 350.5,263.5 349.5,263.5 348.5,263.5C 348.5,298.167 348.5,332.833 348.5,367.5C 349.5,367.5 350.5,367.5 351.5,367.5C 351.334,375.84 351.5,384.173 352,392.5C 353.147,391.542 354.147,391.875 355,393.5C 356.414,392.587 357.914,392.587 359.5,393.5C 360.492,393.328 361.158,393.662 361.5,394.5C 362.398,395.158 363.398,395.824 364.5,396.5C 363.224,397.645 361.891,397.645 360.5,396.5C 359.396,397.631 359.729,398.465 361.5,399C 359.257,398.681 357.09,398.848 355,399.5C 354.833,404.833 354.667,410.167 354.5,415.5C 354.547,421.341 355.214,427.008 356.5,432.5C 353.895,435.089 353.895,437.589 356.5,440C 355.552,440.483 354.552,440.649 353.5,440.5C 352.833,440.5 352.167,440.5 351.5,440.5C 346.903,436.858 341.903,433.692 336.5,431C 334.271,428.6 331.937,426.433 329.5,424.5C 330.496,424.586 331.329,424.252 332,423.5C 332.182,420.774 332.682,418.107 333.5,415.5C 333.833,394.167 334.167,372.833 334.5,351.5C 334.416,327.471 333.75,303.471 332.5,279.5C 332.562,276.387 333.229,273.554 334.5,271C 331.833,270 331.833,269 334.5,268C 332.846,267.392 331.179,266.892 329.5,266.5C 336.859,259.161 345.526,253.827 355.5,250.5 Z"/></g>
<g><path style="opacity:1" fill="#aaafc2" d="M 455.5,258.5 C 457.5,259.5 459.5,260.5 461.5,261.5C 472.577,270.572 482.077,281.238 490,293.5C 511.211,336.33 507.378,376.663 478.5,414.5C 474.376,418.413 470.043,422.079 465.5,425.5C 464.127,425.657 462.793,425.49 461.5,425C 463.344,422.196 464.011,419.03 463.5,415.5C 466.448,415.223 469.281,415.556 472,416.5C 472.595,415.101 472.428,413.768 471.5,412.5C 473.619,411.479 475.286,409.979 476.5,408C 475.101,407.405 473.768,407.572 472.5,408.5C 471.5,368.172 471.167,327.839 471.5,287.5C 468.833,287.5 466.167,287.5 463.5,287.5C 463.688,280.666 463.688,273.999 463.5,267.5C 461.833,267.5 460.167,267.5 458.5,267.5C 458.657,266.127 458.49,264.793 458,263.5C 455.412,262.339 454.578,260.672 455.5,258.5 Z"/></g>
<g><path style="opacity:1" fill="#eceff6" d="M 434.5,335.5 C 430.533,335.266 427.2,336.6 424.5,339.5C 422.085,339.281 421.085,337.948 421.5,335.5C 422.833,335.5 424.167,335.5 425.5,335.5C 425.5,330.167 425.5,324.833 425.5,319.5C 423.833,319.5 422.167,319.5 420.5,319.5C 420.192,317.076 420.526,314.743 421.5,312.5C 422.883,315.076 423.717,314.742 424,311.5C 424.333,312.833 424.667,314.167 425,315.5C 426.548,311.322 426.715,307.156 425.5,303C 426.381,302.292 427.047,301.458 427.5,300.5C 442.112,298.276 448.946,304.609 448,319.5C 444.762,325.904 440.262,331.237 434.5,335.5 Z"/></g>
<g><path style="opacity:1" fill="#dadfec" d="M 375.5,300.5 C 378.091,303.151 380.757,305.818 383.5,308.5C 381.383,307.066 379.716,307.566 378.5,310C 379.617,321.597 379.617,333.097 378.5,344.5C 379.693,346.527 381.36,348.027 383.5,349C 382.167,349.667 382.167,350.333 383.5,351C 381.19,351.497 378.857,351.663 376.5,351.5C 376.664,354.187 376.497,356.854 376,359.5C 375.259,358.359 374.425,358.359 373.5,359.5C 370.791,370.01 369.958,380.677 371,391.5C 372.113,392.711 373.28,392.711 374.5,391.5C 377.055,389.301 378.721,386.634 379.5,383.5C 381.833,383.5 384.167,383.5 386.5,383.5C 386.167,384.167 385.833,384.833 385.5,385.5C 382.12,389.043 378.287,392.043 374,394.5C 369.848,395.599 365.682,395.599 361.5,394.5C 361.158,393.662 360.492,393.328 359.5,393.5C 351.255,386.003 350.421,377.669 357,368.5C 364.624,362.044 371.79,355.044 378.5,347.5C 370.612,339.622 362.779,331.622 355,323.5C 352.742,319.08 352.076,314.413 353,309.5C 358.324,301.089 365.824,298.089 375.5,300.5 Z"/></g>
<g><path style="opacity:1" fill="#eef1fa" d="M 575.5,251.5 C 579.015,256.892 581.181,262.892 582,269.5C 585.29,277.076 588.29,284.743 591,292.5C 594.326,308.263 599.493,323.43 606.5,338C 607.231,341.488 607.898,344.988 608.5,348.5C 616.276,369.658 623.776,390.992 631,412.5C 638.229,436.858 631.396,456.025 610.5,470C 599.079,474.195 587.412,477.695 575.5,480.5C 575.56,404.306 575.56,327.973 575.5,251.5 Z"/></g>
<g><path style="opacity:1" fill="#a5abbd" d="M 757.5,307.5 C 763.176,307.334 768.843,307.501 774.5,308C 773.167,308.333 771.833,308.667 770.5,309C 775.907,310.135 781.074,311.635 786,313.5C 786.333,312.833 786.667,312.167 787,311.5C 787.494,313.134 787.66,314.801 787.5,316.5C 786.167,316.5 784.833,316.5 783.5,316.5C 783.5,317.5 783.5,318.5 783.5,319.5C 784.5,319.5 785.5,319.5 786.5,319.5C 785.833,340.844 785.833,362.177 786.5,383.5C 788.063,395.301 789.563,395.301 791,383.5C 791.752,386.894 791.585,390.227 790.5,393.5C 789.5,394.167 788.5,394.833 787.5,395.5C 787.709,396.086 788.043,396.586 788.5,397C 786.811,396.866 785.144,396.366 783.5,395.5C 779.504,393.503 775.504,391.503 771.5,389.5C 767.796,387.043 763.796,384.876 759.5,383C 755.244,382.299 751.244,381.132 747.5,379.5C 748.833,379.5 750.167,379.5 751.5,379.5C 751.5,375.5 751.5,371.5 751.5,367.5C 748.833,367.5 746.167,367.5 743.5,367.5C 743.818,351.119 743.485,334.786 742.5,318.5C 744.239,318.406 746.239,318.239 748.5,318C 750.26,317.035 750.594,315.868 749.5,314.5C 748.335,315.491 747.168,316.491 746,317.5C 744.269,316.259 742.436,315.259 740.5,314.5C 745.524,310.828 751.19,308.495 757.5,307.5 Z"/></g>
<g><path style="opacity:1" fill="#e7eaf2" d="M 427.5,300.5 C 427.047,301.458 426.381,302.292 425.5,303C 426.715,307.156 426.548,311.322 425,315.5C 424.667,314.167 424.333,312.833 424,311.5C 423.717,314.742 422.883,315.076 421.5,312.5C 420.526,314.743 420.192,317.076 420.5,319.5C 422.167,319.5 423.833,319.5 425.5,319.5C 425.5,324.833 425.5,330.167 425.5,335.5C 424.167,335.5 422.833,335.5 421.5,335.5C 421.085,337.948 422.085,339.281 424.5,339.5C 427.2,336.6 430.533,335.266 434.5,335.5C 430.855,339.48 427.189,343.48 423.5,347.5C 426.48,351.811 429.813,355.811 433.5,359.5C 432.883,359.611 432.383,359.944 432,360.5C 431.503,362.81 431.337,365.143 431.5,367.5C 429.833,367.5 428.167,367.5 426.5,367.5C 425.215,370.088 425.048,378.088 426,391.5C 426.513,392.527 427.013,393.527 427.5,394.5C 426.417,394.461 425.417,394.127 424.5,393.5C 421.803,390.468 418.803,387.802 415.5,385.5C 415.672,384.508 415.338,383.842 414.5,383.5C 415.119,379.897 415.453,376.231 415.5,372.5C 413.61,372.703 412.11,372.037 411,370.5C 410.667,371.5 410.333,372.5 410,373.5C 408.708,371.751 407.542,369.918 406.5,368C 407.491,351.911 407.825,335.744 407.5,319.5C 410.167,316.5 412.833,313.5 415.5,310.5C 419.227,306.767 423.227,303.434 427.5,300.5 Z"/></g>
<g><path style="opacity:1" fill="#a7afc0" d="M 757.5,307.5 C 762.305,306.513 767.305,306.179 772.5,306.5C 806.593,312.747 822.426,333.08 820,367.5C 815.36,382.93 809.86,397.93 803.5,412.5C 797.446,406.113 790.779,400.446 783.5,395.5C 785.144,396.366 786.811,396.866 788.5,397C 788.043,396.586 787.709,396.086 787.5,395.5C 788.5,394.833 789.5,394.167 790.5,393.5C 791.585,390.227 791.752,386.894 791,383.5C 789.563,395.301 788.063,395.301 786.5,383.5C 785.833,362.177 785.833,340.844 786.5,319.5C 785.5,319.5 784.5,319.5 783.5,319.5C 783.5,318.5 783.5,317.5 783.5,316.5C 784.833,316.5 786.167,316.5 787.5,316.5C 787.66,314.801 787.494,313.134 787,311.5C 786.667,312.167 786.333,312.833 786,313.5C 781.074,311.635 775.907,310.135 770.5,309C 771.833,308.667 773.167,308.333 774.5,308C 768.843,307.501 763.176,307.334 757.5,307.5 Z"/></g>
<g><path style="opacity:1" fill="#a2a7b9" d="M 740.5,314.5 C 742.436,315.259 744.269,316.259 746,317.5C 747.168,316.491 748.335,315.491 749.5,314.5C 750.594,315.868 750.26,317.035 748.5,318C 746.239,318.239 744.239,318.406 742.5,318.5C 743.485,334.786 743.818,351.119 743.5,367.5C 746.167,367.5 748.833,367.5 751.5,367.5C 751.5,371.5 751.5,375.5 751.5,379.5C 750.167,379.5 748.833,379.5 747.5,379.5C 744.742,378.239 741.742,377.406 738.5,377C 727.476,376.394 716.809,375.227 706.5,373.5C 711.217,360.856 716.051,348.19 721,335.5C 724.333,330.833 727.667,326.167 731,321.5C 734.044,318.949 737.211,316.616 740.5,314.5 Z"/></g>
<g><path style="opacity:1" fill="#e2e6f1" d="M 407.5,319.5 C 407.825,335.744 407.491,351.911 406.5,368C 407.542,369.918 408.708,371.751 410,373.5C 410.333,372.5 410.667,371.5 411,370.5C 412.11,372.037 413.61,372.703 415.5,372.5C 415.453,376.231 415.119,379.897 414.5,383.5C 410.451,378.775 405.951,374.441 401,370.5C 398.348,372.32 395.848,374.32 393.5,376.5C 392.584,376.018 391.584,375.685 390.5,375.5C 384.306,380.955 383.472,380.621 388,374.5C 388.311,372.444 388.811,370.444 389.5,368.5C 388.518,354.883 388.185,341.216 388.5,327.5C 391.961,328.111 394.628,326.944 396.5,324C 393.887,322.929 393.887,322.095 396.5,321.5C 397.479,323.145 398.812,324.479 400.5,325.5C 402.533,323.132 404.867,321.132 407.5,319.5 Z"/></g>
<g><path style="opacity:1" fill="#dee2ed" d="M 383.5,308.5 C 387.5,313.167 391.833,317.5 396.5,321.5C 393.887,322.095 393.887,322.929 396.5,324C 394.628,326.944 391.961,328.111 388.5,327.5C 388.185,341.216 388.518,354.883 389.5,368.5C 388.811,370.444 388.311,372.444 388,374.5C 383.472,380.621 384.306,380.955 390.5,375.5C 391.584,375.685 392.584,376.018 393.5,376.5C 391.5,379.167 389.167,381.5 386.5,383.5C 384.167,383.5 381.833,383.5 379.5,383.5C 378.721,386.634 377.055,389.301 374.5,391.5C 373.28,392.711 372.113,392.711 371,391.5C 369.958,380.677 370.791,370.01 373.5,359.5C 374.425,358.359 375.259,358.359 376,359.5C 376.497,356.854 376.664,354.187 376.5,351.5C 378.857,351.663 381.19,351.497 383.5,351C 382.167,350.333 382.167,349.667 383.5,349C 381.36,348.027 379.693,346.527 378.5,344.5C 379.617,333.097 379.617,321.597 378.5,310C 379.716,307.566 381.383,307.066 383.5,308.5 Z"/></g>
<g><path style="opacity:1" fill="#ecf0f9" d="M 433.5,359.5 C 438.488,363.321 442.988,367.654 447,372.5C 448.405,376.072 448.738,379.739 448,383.5C 444.583,393.295 437.75,396.961 427.5,394.5C 427.013,393.527 426.513,392.527 426,391.5C 425.048,378.088 425.215,370.088 426.5,367.5C 428.167,367.5 429.833,367.5 431.5,367.5C 431.337,365.143 431.503,362.81 432,360.5C 432.383,359.944 432.883,359.611 433.5,359.5 Z"/></g>
<g><path style="opacity:1" fill="#bec4d4" d="M 706.5,373.5 C 716.809,375.227 727.476,376.394 738.5,377C 741.742,377.406 744.742,378.239 747.5,379.5C 746.127,379.343 744.793,379.51 743.5,380C 745.5,381 747.5,382 749.5,383C 744.938,382.784 740.271,383.284 735.5,384.5C 732.23,385.759 730.563,388.092 730.5,391.5C 729.5,391.5 728.5,391.5 727.5,391.5C 727.167,386.167 726.833,386.167 726.5,391.5C 724.139,391.674 721.806,392.007 719.5,392.5C 713.167,392.5 706.833,392.5 700.5,392.5C 700.077,391.735 699.743,390.902 699.5,390C 701.371,384.195 703.704,378.695 706.5,373.5 Z"/></g>
<g><path style="opacity:1" fill="#a3a7ba" d="M 414.5,383.5 C 415.338,383.842 415.672,384.508 415.5,385.5C 415.631,386.239 415.464,386.906 415,387.5C 413.989,386.663 412.822,386.33 411.5,386.5C 411.5,385.5 411.5,384.5 411.5,383.5C 410.325,383.281 409.325,383.614 408.5,384.5C 410.024,386.858 412.024,388.691 414.5,390C 412.833,390.333 411.167,390.667 409.5,391C 410.493,409.757 410.826,428.59 410.5,447.5C 413.5,447.5 416.5,447.5 419.5,447.5C 413.119,449.468 406.453,450.468 399.5,450.5C 391.237,450.373 383.237,449.373 375.5,447.5C 377.833,447.5 380.167,447.5 382.5,447.5C 382.333,431.497 382.5,415.497 383,399.5C 383.5,415.83 383.667,432.163 383.5,448.5C 385.5,448.167 387.5,447.833 389.5,447.5C 389.174,428.59 389.507,409.757 390.5,391C 389.692,390.692 389.025,390.192 388.5,389.5C 389.853,388.476 390.52,387.143 390.5,385.5C 388.833,385.5 387.167,385.5 385.5,385.5C 385.833,384.833 386.167,384.167 386.5,383.5C 389.167,381.5 391.5,379.167 393.5,376.5C 395.848,374.32 398.348,372.32 401,370.5C 405.951,374.441 410.451,378.775 414.5,383.5 Z"/></g>
<g><path style="opacity:1" fill="#dfe2ea" d="M 174.5,351.5 C 170.711,367.219 169.044,383.219 169.5,399.5C 168.167,399.5 166.833,399.5 165.5,399.5C 166.652,383.974 168.985,368.641 172.5,353.5C 172.747,352.287 173.414,351.62 174.5,351.5 Z"/></g>
<g><path style="opacity:1" fill="#a0a5b8" d="M 385.5,385.5 C 387.167,385.5 388.833,385.5 390.5,385.5C 390.52,387.143 389.853,388.476 388.5,389.5C 389.025,390.192 389.692,390.692 390.5,391C 389.507,409.757 389.174,428.59 389.5,447.5C 387.5,447.833 385.5,448.167 383.5,448.5C 383.667,432.163 383.5,415.83 383,399.5C 382.5,415.497 382.333,431.497 382.5,447.5C 380.167,447.5 377.833,447.5 375.5,447.5C 373.473,447.662 371.473,447.495 369.5,447C 364.096,444.706 358.762,442.54 353.5,440.5C 354.552,440.649 355.552,440.483 356.5,440C 353.895,437.589 353.895,435.089 356.5,432.5C 355.214,427.008 354.547,421.341 354.5,415.5C 354.667,410.167 354.833,404.833 355,399.5C 357.09,398.848 359.257,398.681 361.5,399C 359.729,398.465 359.396,397.631 360.5,396.5C 361.891,397.645 363.224,397.645 364.5,396.5C 363.398,395.824 362.398,395.158 361.5,394.5C 365.682,395.599 369.848,395.599 374,394.5C 378.287,392.043 382.12,389.043 385.5,385.5 Z"/></g>
<g><path style="opacity:1" fill="#c8ccdc" d="M 747.5,379.5 C 751.244,381.132 755.244,382.299 759.5,383C 763.796,384.876 767.796,387.043 771.5,389.5C 769.025,389.747 769.025,390.413 771.5,391.5C 772.803,394.97 772.469,398.303 770.5,401.5C 770.667,402.167 770.833,402.833 771,403.5C 772.333,402.833 773.667,402.167 775,401.5C 775.233,403.78 776.066,405.78 777.5,407.5C 776.975,408.192 776.308,408.692 775.5,409C 776.687,410.019 777.687,411.186 778.5,412.5C 778.376,413.107 778.043,413.44 777.5,413.5C 759.477,402.936 740.144,395.936 719.5,392.5C 721.806,392.007 724.139,391.674 726.5,391.5C 726.833,386.167 727.167,386.167 727.5,391.5C 728.5,391.5 729.5,391.5 730.5,391.5C 730.563,388.092 732.23,385.759 735.5,384.5C 740.271,383.284 744.938,382.784 749.5,383C 747.5,382 745.5,381 743.5,380C 744.793,379.51 746.127,379.343 747.5,379.5 Z"/></g>
<g><path style="opacity:1" fill="#ccd2e1" d="M 771.5,389.5 C 775.504,391.503 779.504,393.503 783.5,395.5C 790.779,400.446 797.446,406.113 803.5,412.5C 800.849,417.12 799.182,422.12 798.5,427.5C 797.448,427.649 796.448,427.483 795.5,427C 789.577,422.223 783.577,417.723 777.5,413.5C 778.043,413.44 778.376,413.107 778.5,412.5C 777.687,411.186 776.687,410.019 775.5,409C 776.308,408.692 776.975,408.192 777.5,407.5C 776.066,405.78 775.233,403.78 775,401.5C 773.667,402.167 772.333,402.833 771,403.5C 770.833,402.833 770.667,402.167 770.5,401.5C 772.469,398.303 772.803,394.97 771.5,391.5C 769.025,390.413 769.025,389.747 771.5,389.5 Z"/></g>
<g><path style="opacity:1" fill="#f1f4fd" d="M 700.5,392.5 C 706.833,392.5 713.167,392.5 719.5,392.5C 740.144,395.936 759.477,402.936 777.5,413.5C 783.577,417.723 789.577,422.223 795.5,427C 796.448,427.483 797.448,427.649 798.5,427.5C 796.94,429.129 797.273,430.296 799.5,431C 798.207,431.49 796.873,431.657 795.5,431.5C 795.813,435.042 795.479,438.375 794.5,441.5C 794.66,439.801 794.494,438.134 794,436.5C 793.667,436.833 793.333,437.167 793,437.5C 790.308,446.416 787.141,455.083 783.5,463.5C 772.101,492.033 761.101,520.699 750.5,549.5C 748.631,553.405 746.631,557.239 744.5,561C 740.278,571.664 736.445,582.498 733,593.5C 732.333,594.167 731.667,594.833 731,595.5C 727.188,607.951 722.688,620.117 717.5,632C 718.094,632.464 718.761,632.631 719.5,632.5C 718.298,634.392 716.965,636.226 715.5,638C 715.833,638.333 716.167,638.667 716.5,639C 714.527,639.495 712.527,639.662 710.5,639.5C 711.178,643.273 709.844,646.106 706.5,648C 707.784,649.297 707.617,650.464 706,651.5C 705.085,650.672 704.419,649.672 704,648.5C 703.667,655.5 703.333,662.5 703,669.5C 702.014,673.004 700.847,676.337 699.5,679.5C 701.961,670.251 699.627,662.417 692.5,656C 690.922,654.906 689.255,654.072 687.5,653.5C 687.586,652.504 687.252,651.671 686.5,651C 680.779,647.809 675.112,644.642 669.5,641.5C 667.898,639.926 665.898,639.259 663.5,639.5C 662.571,638.685 661.571,637.852 660.5,637C 654.668,635.444 649.001,633.611 643.5,631.5C 638.537,630.574 633.537,629.908 628.5,629.5C 620.844,628.764 613.51,629.764 606.5,632.5C 606.808,624.68 609.308,617.346 614,610.5C 616.101,602.483 618.601,594.65 621.5,587C 623.373,584.699 624.873,582.199 626,579.5C 627.844,571.973 630.677,564.807 634.5,558C 637.713,546.914 641.546,536.081 646,525.5C 648.139,519.888 650.806,514.554 654,509.5C 655.473,503.75 657.14,498.083 659,492.5C 665.382,476.067 672.048,459.734 679,443.5C 679.667,440.833 680.333,438.167 681,435.5C 685.317,425.443 689.817,415.443 694.5,405.5C 695.27,401.819 696.103,398.152 697,394.5C 697.816,393.177 698.983,392.511 700.5,392.5 Z"/></g>
<g><path style="opacity:1" fill="#dfe3ee" d="M 311.5,405.5 C 316.769,412.438 322.769,418.771 329.5,424.5C 331.937,426.433 334.271,428.6 336.5,431C 341.903,433.692 346.903,436.858 351.5,440.5C 351.141,442.766 351.808,444.599 353.5,446C 352.833,446.333 352.167,446.667 351.5,447C 353.488,447.18 355.488,447.014 357.5,446.5C 357.778,481.514 357.445,516.514 356.5,551.5C 360.15,552.675 363.817,552.675 367.5,551.5C 367.389,552.117 367.056,552.617 366.5,553C 363.475,553.361 360.475,553.861 357.5,554.5C 350.598,558.059 343.265,560.059 335.5,560.5C 325.048,560.304 314.381,559.971 303.5,559.5C 303.5,511.5 303.5,463.5 303.5,415.5C 305.167,415.5 306.833,415.5 308.5,415.5C 308.5,412.167 306.833,410.5 303.5,410.5C 303.36,408.876 304.027,407.71 305.5,407C 303.963,405.89 303.297,404.39 303.5,402.5C 304.5,402.5 305.5,402.5 306.5,402.5C 306.5,403.5 306.5,404.5 306.5,405.5C 308.167,405.5 309.833,405.5 311.5,405.5 Z"/></g>
<g><path style="opacity:1" fill="#e6e9f1" d="M 478.5,414.5 C 478.611,415.117 478.944,415.617 479.5,416C 478.077,418.836 476.077,421.169 473.5,423C 475.38,422.49 477.213,422.657 479,423.5C 479.497,426.146 479.664,428.813 479.5,431.5C 478.5,431.5 477.5,431.5 476.5,431.5C 476.5,458.167 476.5,484.833 476.5,511.5C 479.167,511.5 481.833,511.5 484.5,511.5C 478.839,513.538 473.173,516.038 467.5,519C 464.833,519.333 462.167,519.667 459.5,520C 452.254,523.804 444.588,526.304 436.5,527.5C 435.188,525.257 434.522,522.59 434.5,519.5C 435.671,505.865 436.338,492.198 436.5,478.5C 436.495,467.259 436.161,456.093 435.5,445C 436.942,444.623 437.942,443.79 438.5,442.5C 448.64,438.599 457.64,432.933 465.5,425.5C 470.043,422.079 474.376,418.413 478.5,414.5 Z"/></g>
<g><path style="opacity:1" fill="#e2e5f1" d="M 351.5,440.5 C 352.167,440.5 352.833,440.5 353.5,440.5C 358.762,442.54 364.096,444.706 369.5,447C 371.473,447.495 373.473,447.662 375.5,447.5C 383.237,449.373 391.237,450.373 399.5,450.5C 406.453,450.468 413.119,449.468 419.5,447.5C 426.101,446.855 432.434,445.189 438.5,442.5C 437.942,443.79 436.942,444.623 435.5,445C 436.161,456.093 436.495,467.259 436.5,478.5C 436.338,492.198 435.671,505.865 434.5,519.5C 434.522,522.59 435.188,525.257 436.5,527.5C 435.081,528.451 433.415,528.784 431.5,528.5C 429.958,527.699 428.292,527.366 426.5,527.5C 426.5,506.167 426.5,484.833 426.5,463.5C 422.833,463.5 419.167,463.5 415.5,463.5C 415.5,484.833 415.5,506.167 415.5,527.5C 419.775,526.75 423.109,528.083 425.5,531.5C 415.718,535.649 405.718,539.482 395.5,543C 391.36,543.865 387.36,544.032 383.5,543.5C 383.5,544.5 383.5,545.5 383.5,546.5C 378.347,548.71 373.014,550.377 367.5,551.5C 363.817,552.675 360.15,552.675 356.5,551.5C 357.445,516.514 357.778,481.514 357.5,446.5C 355.488,447.014 353.488,447.18 351.5,447C 352.167,446.667 352.833,446.333 353.5,446C 351.808,444.599 351.141,442.766 351.5,440.5 Z"/></g>
<g><path style="opacity:1" fill="#dcdfe8" d="M 794.5,441.5 C 793.826,456.895 792.326,472.228 790,487.5C 789.902,490.522 789.068,493.189 787.5,495.5C 788.118,490.003 788.785,484.503 789.5,479C 788.966,474.076 788.299,468.91 787.5,463.5C 786.167,463.5 784.833,463.5 783.5,463.5C 787.141,455.083 790.308,446.416 793,437.5C 793.333,437.167 793.667,436.833 794,436.5C 794.494,438.134 794.66,439.801 794.5,441.5 Z"/></g>
<g><path style="opacity:1" fill="#e4e8ef" d="M 431.5,528.5 C 430.015,530.231 428.015,531.231 425.5,531.5C 423.109,528.083 419.775,526.75 415.5,527.5C 415.5,506.167 415.5,484.833 415.5,463.5C 419.167,463.5 422.833,463.5 426.5,463.5C 426.5,484.833 426.5,506.167 426.5,527.5C 428.292,527.366 429.958,527.699 431.5,528.5 Z"/></g>
<g><path style="opacity:1" fill="#d8dce9" d="M 783.5,463.5 C 784.833,463.5 786.167,463.5 787.5,463.5C 788.299,468.91 788.966,474.076 789.5,479C 788.785,484.503 788.118,490.003 787.5,495.5C 788.021,499.73 786.854,503.396 784,506.5C 782.919,517.506 779.919,527.84 775,537.5C 774.038,542.003 772.705,546.336 771,550.5C 770.075,551.047 769.242,551.713 768.5,552.5C 766.306,558.211 764.139,563.877 762,569.5C 757.169,575.826 752.835,582.492 749,589.5C 740.998,605.017 731.165,619.35 719.5,632.5C 718.761,632.631 718.094,632.464 717.5,632C 722.688,620.117 727.188,607.951 731,595.5C 731.667,594.833 732.333,594.167 733,593.5C 736.445,582.498 740.278,571.664 744.5,561C 746.631,557.239 748.631,553.405 750.5,549.5C 761.101,520.699 772.101,492.033 783.5,463.5 Z"/></g>
<g><path style="opacity:1" fill="#a2a7b9" d="M 490.5,698.5 C 470.169,697.833 449.669,697.5 429,697.5C 408.156,697.5 387.656,698.167 367.5,699.5C 364.336,701.462 361.003,703.129 357.5,704.5C 352.171,703.747 346.504,703.58 340.5,704C 342.036,705.599 342.536,707.433 342,709.5C 340.758,707.141 339.258,705.141 337.5,703.5C 343.097,694.247 351.097,687.914 361.5,684.5C 403.657,683.878 445.657,683.212 487.5,682.5C 496.938,680.199 503.438,674.532 507,665.5C 511.541,646.574 504.374,634.907 485.5,630.5C 414.294,629.827 342.961,629.16 271.5,628.5C 267.541,623.999 267.541,619.499 271.5,615C 346.203,614.015 420.869,614.349 495.5,616C 507.947,620.515 516.947,628.848 522.5,641C 529.486,670.332 518.819,689.499 490.5,698.5 Z"/></g>
<g><path style="opacity:1" fill="#a3a7b9" d="M 200.5,614.5 C 210.839,614.334 221.172,614.5 231.5,615C 234.838,616.851 236.171,619.685 235.5,623.5C 234.585,625.754 233.252,627.754 231.5,629.5C 220.88,630.62 210.213,630.787 199.5,630C 195.797,626.604 194.631,622.437 196,617.5C 197.271,616.117 198.771,615.117 200.5,614.5 Z"/></g>
<g><path style="opacity:1" fill="#a9afbf" d="M 271.5,628.5 C 342.961,629.16 414.294,629.827 485.5,630.5C 414.499,630.667 343.499,630.5 272.5,630C 271.944,629.617 271.611,629.117 271.5,628.5 Z"/></g>
<g><path style="opacity:1" fill="#b2b7ca" d="M 628.5,629.5 C 626.369,630.314 624.036,630.814 621.5,631C 623.81,631.497 626.143,631.663 628.5,631.5C 628.5,632.5 628.5,633.5 628.5,634.5C 629.5,634.5 630.5,634.5 631.5,634.5C 632.256,639.187 630.756,642.853 627,645.5C 626.502,648.817 626.335,652.15 626.5,655.5C 625.5,655.5 624.5,655.5 623.5,655.5C 624.51,661.553 622.843,666.553 618.5,670.5C 620.774,673.036 620.107,675.036 616.5,676.5C 615.682,679.107 615.182,681.774 615,684.5C 611.153,687.494 609.653,691.494 610.5,696.5C 612.199,696.34 613.866,696.506 615.5,697C 612.833,697.333 610.167,697.667 607.5,698C 614.167,698.667 614.167,699.333 607.5,700C 611.688,700.176 615.688,700.676 619.5,701.5C 613.5,701.5 607.5,701.5 601.5,701.5C 601.5,704.833 601.5,708.167 601.5,711.5C 600.337,690.323 599.504,668.99 599,647.5C 600.481,641.824 602.981,636.824 606.5,632.5C 613.51,629.764 620.844,628.764 628.5,629.5 Z"/></g>
<g><path style="opacity:1" fill="#b9bed0" d="M 628.5,629.5 C 633.537,629.908 638.537,630.574 643.5,631.5C 644.681,633.067 646.347,633.901 648.5,634C 646.833,634.333 645.167,634.667 643.5,635C 644.938,635.219 646.271,635.719 647.5,636.5C 646.478,637.354 645.645,638.354 645,639.5C 645.269,644.156 643.602,647.823 640,650.5C 639.5,657.492 639.334,664.492 639.5,671.5C 633.833,671.167 631.167,673.833 631.5,679.5C 628.962,680.677 626.629,682.344 624.5,684.5C 623.508,688.783 623.174,693.116 623.5,697.5C 619.5,698.167 619.5,698.833 623.5,699.5C 623.5,700.5 623.5,701.5 623.5,702.5C 621.901,702.768 620.568,702.434 619.5,701.5C 615.688,700.676 611.688,700.176 607.5,700C 614.167,699.333 614.167,698.667 607.5,698C 610.167,697.667 612.833,697.333 615.5,697C 613.866,696.506 612.199,696.34 610.5,696.5C 609.653,691.494 611.153,687.494 615,684.5C 615.182,681.774 615.682,679.107 616.5,676.5C 620.107,675.036 620.774,673.036 618.5,670.5C 622.843,666.553 624.51,661.553 623.5,655.5C 624.5,655.5 625.5,655.5 626.5,655.5C 626.335,652.15 626.502,648.817 627,645.5C 630.756,642.853 632.256,639.187 631.5,634.5C 630.5,634.5 629.5,634.5 628.5,634.5C 628.5,633.5 628.5,632.5 628.5,631.5C 626.143,631.663 623.81,631.497 621.5,631C 624.036,630.814 626.369,630.314 628.5,629.5 Z"/></g>
<g><path style="opacity:1" fill="#bfc5d4" d="M 643.5,631.5 C 649.001,633.611 654.668,635.444 660.5,637C 661.571,637.852 662.571,638.685 663.5,639.5C 661.833,639.5 660.167,639.5 658.5,639.5C 658.665,642.518 658.498,645.518 658,648.5C 656.285,650.759 654.452,652.926 652.5,655C 653.448,655.483 654.448,655.649 655.5,655.5C 654.805,657.978 653.305,659.978 651,661.5C 650.667,665.167 650.333,668.833 650,672.5C 649.333,673.167 648.667,673.833 648,674.5C 647.818,677.226 647.318,679.893 646.5,682.5C 644.371,684.656 642.038,686.323 639.5,687.5C 639.5,690.167 639.5,692.833 639.5,695.5C 638.5,695.5 637.5,695.5 636.5,695.5C 636.28,699.953 637.28,703.953 639.5,707.5C 634.539,704.689 629.206,703.022 623.5,702.5C 623.5,701.5 623.5,700.5 623.5,699.5C 619.5,698.833 619.5,698.167 623.5,697.5C 623.174,693.116 623.508,688.783 624.5,684.5C 626.629,682.344 628.962,680.677 631.5,679.5C 631.167,673.833 633.833,671.167 639.5,671.5C 639.334,664.492 639.5,657.492 640,650.5C 643.602,647.823 645.269,644.156 645,639.5C 645.645,638.354 646.478,637.354 647.5,636.5C 646.271,635.719 644.938,635.219 643.5,635C 645.167,634.667 646.833,634.333 648.5,634C 646.347,633.901 644.681,633.067 643.5,631.5 Z"/></g>
<g><path style="opacity:1" fill="#c5cbdb" d="M 663.5,639.5 C 665.898,639.259 667.898,639.926 669.5,641.5C 669.279,642.735 668.612,643.735 667.5,644.5C 669.882,646.071 672.549,646.904 675.5,647C 676.833,648 676.833,649 675.5,650C 678.234,650.998 679.901,652.832 680.5,655.5C 677.5,655.5 674.5,655.5 671.5,655.5C 669.371,660.479 668.038,665.812 667.5,671.5C 666.186,672.313 665.019,673.313 664,674.5C 663.818,677.226 663.318,679.893 662.5,682.5C 659.721,684.675 657.554,687.342 656,690.5C 655.506,692.134 655.34,693.801 655.5,695.5C 659.133,695.443 659.3,696.443 656,698.5C 655.818,701.226 655.318,703.893 654.5,706.5C 649.377,709.023 649.377,711.356 654.5,713.5C 652.833,713.5 651.167,713.5 649.5,713.5C 650.952,714.94 651.952,716.606 652.5,718.5C 650.188,716.854 648.188,714.854 646.5,712.5C 643.976,711.408 641.643,710.074 639.5,708.5C 639.5,708.167 639.5,707.833 639.5,707.5C 637.28,703.953 636.28,699.953 636.5,695.5C 637.5,695.5 638.5,695.5 639.5,695.5C 639.5,692.833 639.5,690.167 639.5,687.5C 642.038,686.323 644.371,684.656 646.5,682.5C 647.318,679.893 647.818,677.226 648,674.5C 648.667,673.833 649.333,673.167 650,672.5C 650.333,668.833 650.667,665.167 651,661.5C 653.305,659.978 654.805,657.978 655.5,655.5C 654.448,655.649 653.448,655.483 652.5,655C 654.452,652.926 656.285,650.759 658,648.5C 658.498,645.518 658.665,642.518 658.5,639.5C 660.167,639.5 661.833,639.5 663.5,639.5 Z"/></g>
<g><path style="opacity:1" fill="#ccd1e0" d="M 669.5,641.5 C 675.112,644.642 680.779,647.809 686.5,651C 687.252,651.671 687.586,652.504 687.5,653.5C 687.357,655.262 687.691,656.929 688.5,658.5C 687.52,659.981 686.353,661.315 685,662.5C 684.667,666.167 684.333,669.833 684,673.5C 681.906,675.527 679.573,677.194 677,678.5C 676.502,681.482 676.335,684.482 676.5,687.5C 674.833,687.5 673.167,687.5 671.5,687.5C 671.238,688.978 671.571,690.311 672.5,691.5C 674.438,690.466 675.772,691.132 676.5,693.5C 674.472,696.559 674.139,699.725 675.5,703C 674.207,703.49 672.873,703.657 671.5,703.5C 671.5,705.167 671.5,706.833 671.5,708.5C 663.44,708.898 659.44,713.232 659.5,721.5C 658.478,721.855 657.811,722.522 657.5,723.5C 656,721.73 654.333,720.063 652.5,718.5C 651.952,716.606 650.952,714.94 649.5,713.5C 651.167,713.5 652.833,713.5 654.5,713.5C 649.377,711.356 649.377,709.023 654.5,706.5C 655.318,703.893 655.818,701.226 656,698.5C 659.3,696.443 659.133,695.443 655.5,695.5C 655.34,693.801 655.506,692.134 656,690.5C 657.554,687.342 659.721,684.675 662.5,682.5C 663.318,679.893 663.818,677.226 664,674.5C 665.019,673.313 666.186,672.313 667.5,671.5C 668.038,665.812 669.371,660.479 671.5,655.5C 674.5,655.5 677.5,655.5 680.5,655.5C 679.901,652.832 678.234,650.998 675.5,650C 676.833,649 676.833,648 675.5,647C 672.549,646.904 669.882,646.071 667.5,644.5C 668.612,643.735 669.279,642.735 669.5,641.5 Z"/></g>
<g><path style="opacity:1" fill="#d2d7e4" d="M 687.5,653.5 C 689.255,654.072 690.922,654.906 692.5,656C 699.627,662.417 701.961,670.251 699.5,679.5C 698.4,681.277 697.566,683.277 697,685.5C 683.577,698.755 670.41,712.089 657.5,725.5C 657.5,724.833 657.5,724.167 657.5,723.5C 657.811,722.522 658.478,721.855 659.5,721.5C 659.44,713.232 663.44,708.898 671.5,708.5C 671.5,706.833 671.5,705.167 671.5,703.5C 672.873,703.657 674.207,703.49 675.5,703C 674.139,699.725 674.472,696.559 676.5,693.5C 675.772,691.132 674.438,690.466 672.5,691.5C 671.571,690.311 671.238,688.978 671.5,687.5C 673.167,687.5 674.833,687.5 676.5,687.5C 676.335,684.482 676.502,681.482 677,678.5C 679.573,677.194 681.906,675.527 684,673.5C 684.333,669.833 684.667,666.167 685,662.5C 686.353,661.315 687.52,659.981 688.5,658.5C 687.691,656.929 687.357,655.262 687.5,653.5 Z"/></g>
<g><path style="opacity:1" fill="#dadee6" d="M 235.5,623.5 C 236.833,623.5 238.167,623.5 239.5,623.5C 238.616,628.388 240.616,630.888 245.5,631C 245.167,631.333 244.833,631.667 244.5,632C 245.715,634.096 246.549,633.929 247,631.5C 247.986,633.778 248.82,636.111 249.5,638.5C 250.376,639.251 251.376,639.751 252.5,640C 251.376,640.249 250.376,640.749 249.5,641.5C 252.563,644.82 256.23,647.32 260.5,649C 261.627,650.753 262.627,652.587 263.5,654.5C 266.695,656.518 269.695,658.851 272.5,661.5C 274.5,662.167 276.5,662.833 278.5,663.5C 279.934,667.816 281.934,671.816 284.5,675.5C 279.039,670.888 273.373,666.388 267.5,662C 261.64,654.806 255.14,648.306 248,642.5C 247.517,641.552 247.351,640.552 247.5,639.5C 242.775,636.937 239.108,633.103 236.5,628C 234.811,628.134 233.144,628.634 231.5,629.5C 233.252,627.754 234.585,625.754 235.5,623.5 Z"/></g>
<g><path style="opacity:1" fill="#b7bccf" d="M 487.5,682.5 C 445.657,683.212 403.657,683.878 361.5,684.5C 362.609,683.71 363.942,683.21 365.5,683C 406.165,682.5 446.832,682.333 487.5,682.5 Z"/></g>
<g><path style="opacity:1" fill="#d8dce9" d="M 200.5,682.5 C 207.497,682.065 213.33,684.398 218,689.5C 218.667,693.5 218.667,697.5 218,701.5C 210.597,709.116 202.931,709.45 195,702.5C 193.816,698.551 193.482,694.551 194,690.5C 195.993,687.676 198.16,685.009 200.5,682.5 Z"/></g>
<g><path style="opacity:1" fill="#a7adbb" d="M 490.5,698.5 C 449.53,699.483 408.53,699.816 367.5,699.5C 387.656,698.167 408.156,697.5 429,697.5C 449.669,697.5 470.169,697.833 490.5,698.5 Z"/></g>
<g><path style="opacity:1" fill="#9fa4b7" d="M 619.5,701.5 C 620.568,702.434 621.901,702.768 623.5,702.5C 629.206,703.022 634.539,704.689 639.5,707.5C 639.5,707.833 639.5,708.167 639.5,708.5C 639.5,709.5 639.5,710.5 639.5,711.5C 635.833,713.167 633.167,715.833 631.5,719.5C 630.5,719.5 629.5,719.5 628.5,719.5C 628.5,724.833 628.5,730.167 628.5,735.5C 626.833,735.5 625.167,735.5 623.5,735.5C 623.97,738.346 623.137,740.679 621,742.5C 620.667,746.167 620.333,749.833 620,753.5C 619.586,753.957 619.086,754.291 618.5,754.5C 617.052,750.743 616.052,750.743 615.5,754.5C 615.728,756.207 616.062,757.874 616.5,759.5C 615.596,760.209 615.263,761.209 615.5,762.5C 612.833,763.167 610.167,763.833 607.5,764.5C 607.507,760.525 606.507,756.859 604.5,753.5C 604.796,742.129 604.796,730.796 604.5,719.5C 603.5,719.5 602.5,719.5 601.5,719.5C 601.5,716.833 601.5,714.167 601.5,711.5C 601.5,708.167 601.5,704.833 601.5,701.5C 607.5,701.5 613.5,701.5 619.5,701.5 Z"/></g>
<g><path style="opacity:1" fill="#d7dcea" d="M 714.5,702.5 C 730.194,702.025 736.028,709.359 732,724.5C 727.782,731.518 721.615,734.018 713.5,732C 710,729.167 706.833,726 704,722.5C 702.052,712.721 705.552,706.054 714.5,702.5 Z"/></g>
<g><path style="opacity:1" fill="#dadde9" d="M 229.5,708.5 C 234.901,707.342 239.067,709.009 242,713.5C 244.006,719.732 242.172,724.232 236.5,727C 225.235,729.364 221.069,724.864 224,713.5C 225.352,711.251 227.185,709.584 229.5,708.5 Z"/></g>
<g><path style="opacity:1" fill="#a7abbd" d="M 639.5,708.5 C 641.643,710.074 643.976,711.408 646.5,712.5C 648.188,714.854 650.188,716.854 652.5,718.5C 654.333,720.063 656,721.73 657.5,723.5C 657.5,724.167 657.5,724.833 657.5,725.5C 643.7,739.466 629.7,753.299 615.5,767C 612.961,767.796 610.628,767.629 608.5,766.5C 610.604,766.799 612.604,766.466 614.5,765.5C 614.291,764.914 613.957,764.414 613.5,764C 615.936,762.238 618.602,760.904 621.5,760C 619.866,759.506 618.199,759.34 616.5,759.5C 616.062,757.874 615.728,756.207 615.5,754.5C 616.052,750.743 617.052,750.743 618.5,754.5C 619.086,754.291 619.586,753.957 620,753.5C 620.333,749.833 620.667,746.167 621,742.5C 623.137,740.679 623.97,738.346 623.5,735.5C 625.167,735.5 626.833,735.5 628.5,735.5C 628.5,730.167 628.5,724.833 628.5,719.5C 629.5,719.5 630.5,719.5 631.5,719.5C 633.167,715.833 635.833,713.167 639.5,711.5C 639.5,710.5 639.5,709.5 639.5,708.5 Z"/></g>
<g><path style="opacity:1" fill="#a3a6b3" d="M 601.5,719.5 C 602.5,719.5 603.5,719.5 604.5,719.5C 604.796,730.796 604.796,742.129 604.5,753.5C 606.507,756.859 607.507,760.525 607.5,764.5C 610.167,763.833 612.833,763.167 615.5,762.5C 615.263,761.209 615.596,760.209 616.5,759.5C 618.199,759.34 619.866,759.506 621.5,760C 618.602,760.904 615.936,762.238 613.5,764C 613.957,764.414 614.291,764.914 614.5,765.5C 612.604,766.466 610.604,766.799 608.5,766.5C 605.769,764.929 603.935,762.595 603,759.5C 602.666,746.154 602.166,732.821 601.5,719.5 Z"/></g>
<g><path style="opacity:1" fill="#a4aab7" d="M 335.5,707.5 C 336.496,716.804 337.163,726.138 337.5,735.5C 336.5,735.5 335.5,735.5 334.5,735.5C 334.899,740.298 336.899,744.298 340.5,747.5C 340.291,748.086 339.957,748.586 339.5,749C 340.67,750.755 342.337,751.755 344.5,752C 344.043,752.414 343.709,752.914 343.5,753.5C 344.456,755.075 345.123,756.742 345.5,758.5C 331.12,744.987 327.12,728.654 333.5,709.5C 334.167,708.833 334.833,708.167 335.5,707.5 Z"/></g>
<g><path style="opacity:1" fill="#ebeef4" d="M 436.5,740.5 C 457.47,741.999 478.47,742.666 499.5,742.5C 486.34,743.66 473.006,743.827 459.5,743C 451.625,742.729 443.958,741.895 436.5,740.5 Z"/></g>
<g><path style="opacity:1" fill="#a7abb6" d="M 350.5,711.5 C 350.167,712.833 349.833,714.167 349.5,715.5C 345,727.993 347.666,738.659 357.5,747.5C 355.5,747.5 353.5,747.5 351.5,747.5C 349.462,744.437 347.629,741.104 346,737.5C 345.54,728.554 344.706,719.887 343.5,711.5C 345.833,711.5 348.167,711.5 350.5,711.5 Z"/></g>
<g><path style="opacity:1" fill="#a4a7b9" d="M 337.5,703.5 C 339.258,705.141 340.758,707.141 342,709.5C 342.536,707.433 342.036,705.599 340.5,704C 346.504,703.58 352.171,703.747 357.5,704.5C 355.167,706.833 352.833,709.167 350.5,711.5C 348.167,711.5 345.833,711.5 343.5,711.5C 344.706,719.887 345.54,728.554 346,737.5C 347.629,741.104 349.462,744.437 351.5,747.5C 353.5,747.5 355.5,747.5 357.5,747.5C 360.631,749.732 363.964,751.399 367.5,752.5C 367.5,753.5 367.5,754.5 367.5,755.5C 401.434,755.501 435.434,755.501 469.5,755.5C 471.029,755.529 472.196,756.196 473,757.5C 473.498,760.817 473.665,764.15 473.5,767.5C 472.711,767.783 472.044,768.283 471.5,769C 436.833,769.667 402.167,769.667 367.5,769C 358.908,767.868 351.574,764.368 345.5,758.5C 345.123,756.742 344.456,755.075 343.5,753.5C 343.709,752.914 344.043,752.414 344.5,752C 342.337,751.755 340.67,750.755 339.5,749C 339.957,748.586 340.291,748.086 340.5,747.5C 336.899,744.298 334.899,740.298 334.5,735.5C 335.5,735.5 336.5,735.5 337.5,735.5C 337.163,726.138 336.496,716.804 335.5,707.5C 335.66,705.847 336.326,704.514 337.5,703.5 Z"/></g>
<g><path style="opacity:1" fill="#c4c9d3" d="M 563.5,753.5 C 549.451,753.201 535.451,753.535 521.5,754.5C 521.611,753.883 521.944,753.383 522.5,753C 536.34,752.173 550.006,752.339 563.5,753.5 Z"/></g>
<g><path style="opacity:1" fill="#aaaeba" d="M 367.5,752.5 C 402.168,752.333 436.835,752.5 471.5,753C 477.272,757.232 477.938,762.065 473.5,767.5C 473.665,764.15 473.498,760.817 473,757.5C 472.196,756.196 471.029,755.529 469.5,755.5C 435.434,755.501 401.434,755.501 367.5,755.5C 367.5,754.5 367.5,753.5 367.5,752.5 Z"/></g>
<g><path style="opacity:1" fill="#a3a8b3" d="M 563.5,753.5 C 566.836,754.465 568.503,756.798 568.5,760.5C 568.445,763.36 567.445,765.693 565.5,767.5C 565.342,764.455 566.009,761.621 567.5,759C 565.709,758.585 564.376,757.585 563.5,756C 551.167,755.333 538.833,755.333 526.5,756C 523.78,756.723 521.613,758.223 520,760.5C 519.722,759.584 519.222,758.918 518.5,758.5C 518.738,756.596 519.738,755.262 521.5,754.5C 535.451,753.535 549.451,753.201 563.5,753.5 Z"/></g>
<g><path style="opacity:1" fill="#a3a7b9" d="M 565.5,767.5 C 564.527,767.987 563.527,768.487 562.5,769C 549.167,769.667 535.833,769.667 522.5,769C 519.13,766.357 517.796,762.857 518.5,758.5C 519.222,758.918 519.722,759.584 520,760.5C 521.613,758.223 523.78,756.723 526.5,756C 538.833,755.333 551.167,755.333 563.5,756C 564.376,757.585 565.709,758.585 567.5,759C 566.009,761.621 565.342,764.455 565.5,767.5 Z"/></g>
<g><path style="opacity:1" fill="#fdfef7" d="M 367.5,773.5 C 399.336,772.17 431.336,772.17 463.5,773.5C 431.493,774.773 399.493,774.773 367.5,773.5 Z"/></g>
<g><path style="opacity:1" fill="#a0a3aa" d="M 495.5,867.5 C 495.5,866.167 495.5,864.833 495.5,863.5C 488.5,863.5 481.5,863.5 474.5,863.5C 474.5,864.5 474.5,865.5 474.5,866.5C 479.695,866.179 484.695,866.513 489.5,867.5C 489.167,867.5 488.833,867.5 488.5,867.5C 483.5,867.5 478.5,867.5 473.5,867.5C 473.5,865.833 473.5,864.167 473.5,862.5C 485.5,862.5 497.5,862.5 509.5,862.5C 509.5,864.167 509.5,865.833 509.5,867.5C 504.833,867.5 500.167,867.5 495.5,867.5 Z"/></g>
<g><path style="opacity:1" fill="#9b9eaf" d="M 402.5,862.5 C 404.167,862.5 405.833,862.5 407.5,862.5C 407.5,878.5 407.5,894.5 407.5,910.5C 402.149,910.553 398.815,907.886 397.5,902.5C 398.272,901.306 399.272,900.306 400.5,899.5C 402.48,887.545 403.146,875.212 402.5,862.5 Z"/></g>
<g><path style="opacity:1" fill="#d1d6db" d="M 589.5,862.5 C 590.167,871.5 590.833,880.5 591.5,889.5C 591.158,890.338 590.492,890.672 589.5,890.5C 589.5,881.167 589.5,871.833 589.5,862.5 Z"/></g>
<g><path style="opacity:1" fill="#9ca2ad" d="M 375.5,863.5 C 383.955,875.013 392.288,886.68 400.5,898.5C 400.5,898.833 400.5,899.167 400.5,899.5C 399.272,900.306 398.272,901.306 397.5,902.5C 390.751,894.9 384.918,886.566 380,877.5C 378.629,875.959 377.129,874.625 375.5,873.5C 375.5,870.167 375.5,866.833 375.5,863.5 Z"/></g>
<g><path style="opacity:1" fill="#c1c1cb" d="M 402.5,862.5 C 403.146,875.212 402.48,887.545 400.5,899.5C 400.5,899.167 400.5,898.833 400.5,898.5C 401.167,886.5 401.833,874.5 402.5,862.5 Z"/></g>
<g><path style="opacity:1" fill="#999cad" d="M 495.5,867.5 C 494.504,881.323 494.171,895.323 494.5,909.5C 492.833,909.5 491.167,909.5 489.5,909.5C 489.5,895.5 489.5,881.5 489.5,867.5C 484.695,866.513 479.695,866.179 474.5,866.5C 474.5,865.5 474.5,864.5 474.5,863.5C 481.5,863.5 488.5,863.5 495.5,863.5C 495.5,864.833 495.5,866.167 495.5,867.5 Z"/></g>
<g><path style="opacity:1" fill="#b6b9c2" d="M 370.5,862.5 C 370.5,878.167 370.5,893.833 370.5,909.5C 372.167,909.5 373.833,909.5 375.5,909.5C 373.735,910.461 371.735,910.795 369.5,910.5C 369.17,894.325 369.504,878.325 370.5,862.5 Z"/></g>
<g><path style="opacity:1" fill="#9b9dad" d="M 370.5,862.5 C 372.415,862.216 374.081,862.549 375.5,863.5C 375.5,866.833 375.5,870.167 375.5,873.5C 375.5,885.5 375.5,897.5 375.5,909.5C 373.833,909.5 372.167,909.5 370.5,909.5C 370.5,893.833 370.5,878.167 370.5,862.5 Z"/></g>
<g><path style="opacity:1" fill="#d2d5e1" d="M 488.5,867.5 C 488.833,867.5 489.167,867.5 489.5,867.5C 489.5,881.5 489.5,895.5 489.5,909.5C 491.167,909.5 492.833,909.5 494.5,909.5C 494.171,895.323 494.504,881.323 495.5,867.5C 495.5,881.833 495.5,896.167 495.5,910.5C 493.167,910.5 490.833,910.5 488.5,910.5C 488.5,896.167 488.5,881.833 488.5,867.5 Z"/></g>
<g><path style="opacity:1" fill="#9ea3af" d="M 596.5,897.5 C 595.934,895.922 594.934,894.588 593.5,893.5C 592.378,894.63 591.044,895.297 589.5,895.5C 589.5,893.833 589.5,892.167 589.5,890.5C 590.492,890.672 591.158,890.338 591.5,889.5C 595.963,884.535 600.63,879.702 605.5,875C 607.833,874.333 610.167,874.333 612.5,875C 607.651,879.681 602.985,884.515 598.5,889.5C 603.5,896.167 608.5,902.833 613.5,909.5C 611.167,910.833 608.833,910.833 606.5,909.5C 603.491,905.164 600.157,901.164 596.5,897.5 Z"/></g>
<g><path style="opacity:1" fill="#9b9cae" d="M 584.5,862.5 C 586.167,862.5 587.833,862.5 589.5,862.5C 589.5,871.833 589.5,881.167 589.5,890.5C 589.5,892.167 589.5,893.833 589.5,895.5C 589.5,900.167 589.5,904.833 589.5,909.5C 587.833,909.5 586.167,909.5 584.5,909.5C 584.5,893.833 584.5,878.167 584.5,862.5 Z"/></g>
<g><path style="opacity:1" fill="#b6bbc0" d="M 418.5,883.5 C 417.771,888.13 417.437,892.797 417.5,897.5C 416.839,895.866 416.506,894.033 416.5,892C 416.36,888.85 417.027,886.017 418.5,883.5 Z"/></g>
<g><path style="opacity:1" fill="#c6c9d2" d="M 539.5,881.5 C 540.494,890.986 540.827,900.652 540.5,910.5C 538.265,910.795 536.265,910.461 534.5,909.5C 536.167,909.5 537.833,909.5 539.5,909.5C 539.5,900.167 539.5,890.833 539.5,881.5 Z"/></g>
<g><path style="opacity:1" fill="#e3e3ee" d="M 584.5,862.5 C 584.5,878.167 584.5,893.833 584.5,909.5C 586.167,909.5 587.833,909.5 589.5,909.5C 587.735,910.461 585.735,910.795 583.5,910.5C 583.17,894.325 583.504,878.325 584.5,862.5 Z"/></g>
<g><path style="opacity:1" fill="#9ea3af" d="M 557.5,873.5 C 565.504,872.018 571.504,874.684 575.5,881.5C 573.827,883.086 571.827,883.753 569.5,883.5C 568.554,880.17 566.22,878.504 562.5,878.5C 555.686,879.121 554.019,882.287 557.5,888C 561.388,889.378 565.388,890.378 569.5,891C 575.169,893.815 577.002,898.315 575,904.5C 570.116,910.22 563.95,912.053 556.5,910C 551.784,908.459 549.117,905.292 548.5,900.5C 550.5,900.5 552.5,900.5 554.5,900.5C 554.33,901.822 554.663,902.989 555.5,904C 559.375,905.52 563.375,905.854 567.5,905C 571.002,902.504 571.335,899.671 568.5,896.5C 564.188,895.271 559.855,894.104 555.5,893C 549.241,889.044 548.074,883.878 552,877.5C 553.812,876.023 555.645,874.69 557.5,873.5 Z"/></g>
<g><path style="opacity:1" fill="#e5e7ec" d="M 596.5,897.5 C 595.213,896.232 594.213,896.565 593.5,898.5C 592.833,897.833 592.167,897.167 591.5,896.5C 590.833,900.982 590.166,905.316 589.5,909.5C 589.5,904.833 589.5,900.167 589.5,895.5C 591.044,895.297 592.378,894.63 593.5,893.5C 594.934,894.588 595.934,895.922 596.5,897.5 Z"/></g>
<g><path style="opacity:1" fill="#9da2af" d="M 539.5,881.5 C 539.5,890.833 539.5,900.167 539.5,909.5C 537.833,909.5 536.167,909.5 534.5,909.5C 534.649,908.448 534.483,907.448 534,906.5C 529.019,911.643 523.186,912.809 516.5,910C 509.969,903.518 509.969,897.185 516.5,891C 522.032,889.274 527.699,888.274 533.5,888C 535.642,881.455 533.142,878.288 526,878.5C 524.833,878.667 523.667,878.833 522.5,879C 520.631,880.544 518.797,882.044 517,883.5C 515.379,883.275 514.212,882.442 513.5,881C 516.036,876.228 520.036,873.728 525.5,873.5C 528.956,873.818 532.289,874.652 535.5,876C 537.464,877.451 538.797,879.284 539.5,881.5 Z"/></g>
<g><path style="opacity:1" fill="#f8fafb" d="M 530.5,892.5 C 531.833,892.5 533.167,892.5 534.5,892.5C 536.146,901.138 532.646,905.471 524,905.5C 518.246,905.739 516.246,903.072 518,897.5C 518.833,896.667 519.667,895.833 520.5,895C 524.038,894.465 527.372,893.632 530.5,892.5 Z"/></g>
<g><path style="opacity:1" fill="#9ea2ae" d="M 417.5,897.5 C 417.437,892.797 417.771,888.13 418.5,883.5C 420.174,880.277 422.507,877.444 425.5,875C 439.346,871.769 447.346,877.269 449.5,891.5C 448.461,906.533 440.461,912.7 425.5,910C 421.422,906.663 418.755,902.497 417.5,897.5 Z"/></g>
<g><path style="opacity:1" fill="#fafbfb" d="M 429.5,878.5 C 435.477,878.071 439.977,880.404 443,885.5C 444.01,891.064 443.343,896.398 441,901.5C 436.8,905.714 431.966,906.548 426.5,904C 422.252,897.622 421.419,890.789 424,883.5C 425.73,881.598 427.563,879.931 429.5,878.5 Z"/></g>
</svg>
